M48
METRIC,LZ,000.000
;FILE_FORMAT=3:3
;TYPE=PLATED
;Layer: PTH_Through
;EasyEDA v6.5.50, 2025-05-02 13:44:32
;9c8b662e0eda49d2b6f133a678b52552,4ea17189a5af4923b0f09c00d4425dfb,10
;Gerber Generator version 0.2
;Holesize 1 = 0.762 mm
T01C0.762
;Holesize 2 = 1.000 mm
T02C1.000
;Holesize 3 = 1.301 mm
T03C1.301
;Holesize 4 = 2.000 mm
T04C2.000
%
G05
G90
T01
X011938Y046355
X011938Y045085
X011938Y047625
X011938Y048895
T02
X044069Y051054
X044069Y048514
X044069Y045974
X044069Y043434
X051689Y043434
X051689Y045974
X051689Y048514
X051689Y051054
X017780Y032766
X020320Y030226
X020320Y035306
X033147Y032639
X035687Y030099
X035687Y035179
X022180Y060071
X022180Y057531
X022180Y054991
X022180Y049911
X022180Y047371
X022180Y044831
X038780Y060071
X038780Y057531
X038780Y054991
X038780Y052451
X038780Y049911
X038780Y047371
X038780Y044831
X022180Y052451
T03
X057912Y055971
X057912Y050963
X057912Y040731
X057912Y035723
T04
X010160Y062230
X010287Y030480
X061087Y062484
X060833Y030480
M30
