G04 Layer: BottomLayer*
G04 EasyEDA v6.5.50, 2025-05-02 13:44:32*
G04 9c8b662e0eda49d2b6f133a678b52552,4ea17189a5af4923b0f09c00d4425dfb,10*
G04 Gerber Generator version 0.2*
G04 Scale: 100 percent, Rotated: No, Reflected: No *
G04 Dimensions in millimeters *
G04 leading zeros omitted , absolute positions ,4 integer and 5 decimal *
%FSLAX45Y45*%
%MOMM*%

%ADD10C,0.2540*%
%ADD11R,1.6002X1.6002*%
%ADD12C,1.6002*%
%ADD13C,2.0000*%
%ADD14C,1.6000*%
%ADD15R,1.6002X0.8890*%
%ADD16R,0.0198X0.8890*%

%LPD*%
G36*
X804316Y2755900D02*
G01*
X800404Y2756662D01*
X797102Y2758897D01*
X752297Y2803702D01*
X750062Y2807004D01*
X749300Y2810916D01*
X749300Y4584598D01*
X762000Y5245150D01*
X749401Y6454038D01*
X750163Y6457950D01*
X752348Y6461302D01*
X755650Y6463538D01*
X759561Y6464300D01*
X6282283Y6464300D01*
X6286195Y6463538D01*
X6289497Y6461302D01*
X6321602Y6429197D01*
X6323838Y6425895D01*
X6324600Y6421983D01*
X6324600Y2785516D01*
X6323838Y2781604D01*
X6321602Y2778302D01*
X6302197Y2758897D01*
X6298895Y2756662D01*
X6294983Y2755900D01*
G37*

%LPC*%
G36*
X3632200Y2895142D02*
G01*
X3639718Y2895904D01*
X3646932Y2898089D01*
X3653637Y2901645D01*
X3659479Y2906420D01*
X3664254Y2912262D01*
X3667810Y2918968D01*
X3669995Y2926181D01*
X3670757Y2933700D01*
X3669995Y2941218D01*
X3668725Y2945485D01*
X3668318Y2949244D01*
X3669284Y2952851D01*
X3671570Y2955899D01*
X3674770Y2957880D01*
X3678428Y2958592D01*
X4292092Y2958592D01*
X4300118Y2959404D01*
X4307332Y2961589D01*
X4314037Y2965145D01*
X4320235Y2970276D01*
X4433824Y3083864D01*
X4438954Y3090062D01*
X4442510Y3096768D01*
X4444695Y3103981D01*
X4445508Y3112008D01*
X4445508Y4238294D01*
X4446219Y4242003D01*
X4448200Y4245152D01*
X4451197Y4247438D01*
X4459833Y4251706D01*
X4471365Y4259376D01*
X4481779Y4268520D01*
X4490923Y4278934D01*
X4498594Y4290466D01*
X4504740Y4302861D01*
X4509211Y4315968D01*
X4511903Y4329582D01*
X4512818Y4343400D01*
X4511903Y4357217D01*
X4509211Y4370832D01*
X4504740Y4383938D01*
X4498594Y4396333D01*
X4490923Y4407865D01*
X4481779Y4418279D01*
X4471365Y4427423D01*
X4459833Y4435094D01*
X4447438Y4441240D01*
X4434332Y4445711D01*
X4420717Y4448403D01*
X4406900Y4449318D01*
X4393082Y4448403D01*
X4379468Y4445711D01*
X4366361Y4441240D01*
X4353966Y4435094D01*
X4342434Y4427423D01*
X4332020Y4418279D01*
X4322876Y4407865D01*
X4315206Y4396333D01*
X4309059Y4383938D01*
X4304588Y4370832D01*
X4301896Y4357217D01*
X4300982Y4343400D01*
X4301947Y4329328D01*
X4301337Y4325264D01*
X4299204Y4321708D01*
X4295851Y4319320D01*
X4291787Y4318508D01*
X3414268Y4318508D01*
X3410356Y4319270D01*
X3407105Y4321505D01*
X3404870Y4324756D01*
X3404108Y4328668D01*
X3404108Y5286603D01*
X3404971Y5290667D01*
X3407359Y5294071D01*
X3410915Y5296204D01*
X3791254Y5428132D01*
X3795217Y5428691D01*
X3799078Y5427675D01*
X3813556Y5415076D01*
X3825036Y5407406D01*
X3837482Y5401259D01*
X3850589Y5396839D01*
X3864152Y5394096D01*
X3877970Y5393232D01*
X3891838Y5394096D01*
X3905402Y5396839D01*
X3918508Y5401259D01*
X3930954Y5407406D01*
X3942435Y5415076D01*
X3952849Y5424220D01*
X3961993Y5434634D01*
X3969715Y5446166D01*
X3975811Y5458561D01*
X3980281Y5471718D01*
X3982974Y5485282D01*
X3983888Y5499100D01*
X3982974Y5512917D01*
X3980281Y5526481D01*
X3975811Y5539638D01*
X3969715Y5552033D01*
X3961993Y5563565D01*
X3952849Y5573979D01*
X3942435Y5583123D01*
X3930954Y5590794D01*
X3918508Y5596940D01*
X3905402Y5601360D01*
X3891838Y5604103D01*
X3877970Y5604967D01*
X3864152Y5604103D01*
X3850589Y5601360D01*
X3837482Y5596940D01*
X3825036Y5590794D01*
X3813556Y5583123D01*
X3803142Y5573979D01*
X3793998Y5563565D01*
X3786276Y5552033D01*
X3780180Y5539638D01*
X3775710Y5526481D01*
X3773017Y5512917D01*
X3772814Y5510022D01*
X3771798Y5506212D01*
X3769410Y5503062D01*
X3766007Y5501081D01*
X3351072Y5357114D01*
X3344062Y5353354D01*
X3338220Y5348579D01*
X3333445Y5342737D01*
X3329889Y5336032D01*
X3327704Y5328818D01*
X3326892Y5320792D01*
X3326892Y4280408D01*
X3327704Y4272381D01*
X3329889Y4265168D01*
X3333445Y4258462D01*
X3338220Y4252620D01*
X3344062Y4247845D01*
X3350768Y4244289D01*
X3357981Y4242104D01*
X3366008Y4241292D01*
X4358132Y4241292D01*
X4362043Y4240530D01*
X4365294Y4238294D01*
X4367530Y4235043D01*
X4368292Y4231132D01*
X4368292Y3131718D01*
X4367530Y3127806D01*
X4365294Y3124504D01*
X4279595Y3038805D01*
X4276293Y3036570D01*
X4272381Y3035808D01*
X3678783Y3035808D01*
X3674668Y3036671D01*
X3671265Y3039110D01*
X3669131Y3042716D01*
X3666540Y3050438D01*
X3660394Y3062833D01*
X3652723Y3074365D01*
X3643579Y3084779D01*
X3633165Y3093923D01*
X3621633Y3101594D01*
X3609238Y3107740D01*
X3596081Y3112160D01*
X3582517Y3114903D01*
X3568700Y3115767D01*
X3554882Y3114903D01*
X3541318Y3112160D01*
X3528161Y3107740D01*
X3515766Y3101594D01*
X3504234Y3093923D01*
X3493820Y3084779D01*
X3484676Y3074365D01*
X3478936Y3065729D01*
X3476650Y3063290D01*
X3473754Y3061766D01*
X3470452Y3061208D01*
X2137105Y3061208D01*
X2133396Y3061919D01*
X2130247Y3063900D01*
X2127961Y3066897D01*
X2123694Y3075533D01*
X2116023Y3087065D01*
X2106879Y3097479D01*
X2096465Y3106623D01*
X2084933Y3114294D01*
X2072538Y3120440D01*
X2059381Y3124860D01*
X2045817Y3127603D01*
X2032000Y3128467D01*
X2018182Y3127603D01*
X2004618Y3124860D01*
X1991461Y3120440D01*
X1979066Y3114294D01*
X1967534Y3106623D01*
X1957120Y3097479D01*
X1947976Y3087065D01*
X1940306Y3075533D01*
X1934159Y3063138D01*
X1929739Y3049981D01*
X1926996Y3036417D01*
X1926132Y3022600D01*
X1926996Y3008782D01*
X1929739Y2995218D01*
X1934159Y2982061D01*
X1940306Y2969666D01*
X1947976Y2958134D01*
X1957120Y2947720D01*
X1967534Y2938576D01*
X1979066Y2930906D01*
X1991461Y2924759D01*
X2004618Y2920339D01*
X2018182Y2917596D01*
X2032000Y2916732D01*
X2045817Y2917596D01*
X2059381Y2920339D01*
X2072538Y2924759D01*
X2084933Y2930906D01*
X2096465Y2938576D01*
X2106879Y2947720D01*
X2116023Y2958134D01*
X2123694Y2969666D01*
X2127961Y2978302D01*
X2130247Y2981299D01*
X2133396Y2983280D01*
X2137105Y2983992D01*
X3458616Y2983992D01*
X3462731Y2983128D01*
X3466134Y2980690D01*
X3468268Y2977083D01*
X3470859Y2969361D01*
X3477006Y2956966D01*
X3484676Y2945434D01*
X3493820Y2935020D01*
X3504234Y2925876D01*
X3515766Y2918206D01*
X3528161Y2912059D01*
X3541318Y2907639D01*
X3554882Y2904896D01*
X3568700Y2904032D01*
X3582517Y2904896D01*
X3597198Y2907893D01*
X3601669Y2907842D01*
X3605682Y2905810D01*
X3610762Y2901645D01*
X3617468Y2898089D01*
X3624681Y2895904D01*
G37*
G36*
X1028700Y2922117D02*
G01*
X1043889Y2923032D01*
X1058824Y2925775D01*
X1073353Y2930296D01*
X1087221Y2936544D01*
X1100226Y2944418D01*
X1112164Y2953766D01*
X1122934Y2964535D01*
X1132281Y2976473D01*
X1140155Y2989478D01*
X1146403Y3003346D01*
X1150924Y3017875D01*
X1153668Y3032810D01*
X1154582Y3048000D01*
X1153668Y3063189D01*
X1150924Y3078124D01*
X1146403Y3092653D01*
X1140155Y3106521D01*
X1132281Y3119526D01*
X1122934Y3131464D01*
X1112164Y3142234D01*
X1100226Y3151581D01*
X1087221Y3159455D01*
X1073353Y3165703D01*
X1058824Y3170224D01*
X1043889Y3172968D01*
X1028700Y3173882D01*
X1013510Y3172968D01*
X998575Y3170224D01*
X984046Y3165703D01*
X970178Y3159455D01*
X957173Y3151581D01*
X945235Y3142234D01*
X934466Y3131464D01*
X925118Y3119526D01*
X917244Y3106521D01*
X910996Y3092653D01*
X906475Y3078124D01*
X903732Y3063189D01*
X902817Y3048000D01*
X903732Y3032810D01*
X906475Y3017875D01*
X910996Y3003346D01*
X917244Y2989478D01*
X925118Y2976473D01*
X934466Y2964535D01*
X945235Y2953766D01*
X957173Y2944418D01*
X970178Y2936544D01*
X984046Y2930296D01*
X998575Y2925775D01*
X1013510Y2923032D01*
G37*
G36*
X6083300Y2922117D02*
G01*
X6098489Y2923032D01*
X6113424Y2925775D01*
X6127953Y2930296D01*
X6141821Y2936544D01*
X6154826Y2944418D01*
X6166764Y2953766D01*
X6177534Y2964535D01*
X6186881Y2976473D01*
X6194755Y2989478D01*
X6201003Y3003346D01*
X6205524Y3017875D01*
X6208268Y3032810D01*
X6209182Y3048000D01*
X6208268Y3063189D01*
X6205524Y3078124D01*
X6201003Y3092653D01*
X6194755Y3106521D01*
X6186881Y3119526D01*
X6177534Y3131464D01*
X6166764Y3142234D01*
X6154826Y3151581D01*
X6141821Y3159455D01*
X6127953Y3165703D01*
X6113424Y3170224D01*
X6098489Y3172968D01*
X6083300Y3173882D01*
X6068110Y3172968D01*
X6053175Y3170224D01*
X6038646Y3165703D01*
X6024778Y3159455D01*
X6011773Y3151581D01*
X5999835Y3142234D01*
X5989066Y3131464D01*
X5979718Y3119526D01*
X5971844Y3106521D01*
X5965596Y3092653D01*
X5961075Y3078124D01*
X5958332Y3063189D01*
X5957417Y3048000D01*
X5958332Y3032810D01*
X5961075Y3017875D01*
X5965596Y3003346D01*
X5971844Y2989478D01*
X5979718Y2976473D01*
X5989066Y2964535D01*
X5999835Y2953766D01*
X6011773Y2944418D01*
X6024778Y2936544D01*
X6038646Y2930296D01*
X6053175Y2925775D01*
X6068110Y2923032D01*
G37*
G36*
X3314700Y3158032D02*
G01*
X3328517Y3158896D01*
X3342081Y3161639D01*
X3355238Y3166059D01*
X3367633Y3172206D01*
X3379165Y3179876D01*
X3389579Y3189020D01*
X3398723Y3199434D01*
X3406394Y3210966D01*
X3412540Y3223361D01*
X3416960Y3236518D01*
X3419703Y3250082D01*
X3420567Y3263900D01*
X3419703Y3277717D01*
X3416960Y3291281D01*
X3412540Y3304438D01*
X3406394Y3316833D01*
X3398723Y3328365D01*
X3389579Y3338779D01*
X3379165Y3347923D01*
X3367633Y3355594D01*
X3355238Y3361740D01*
X3342081Y3366160D01*
X3328517Y3368903D01*
X3314700Y3369767D01*
X3300882Y3368903D01*
X3287318Y3366160D01*
X3274161Y3361740D01*
X3261766Y3355594D01*
X3250234Y3347923D01*
X3239820Y3338779D01*
X3230676Y3328365D01*
X3223006Y3316833D01*
X3216859Y3304438D01*
X3212439Y3291281D01*
X3209696Y3277717D01*
X3208832Y3263900D01*
X3209696Y3250082D01*
X3212439Y3236518D01*
X3216859Y3223361D01*
X3223006Y3210966D01*
X3230676Y3199434D01*
X3239820Y3189020D01*
X3250234Y3179876D01*
X3261766Y3172206D01*
X3274161Y3166059D01*
X3287318Y3161639D01*
X3300882Y3158896D01*
G37*
G36*
X1778000Y3170732D02*
G01*
X1791817Y3171596D01*
X1805381Y3174339D01*
X1818538Y3178759D01*
X1830933Y3184906D01*
X1842465Y3192576D01*
X1852879Y3201720D01*
X1862023Y3212134D01*
X1869693Y3223666D01*
X1875840Y3236061D01*
X1880260Y3249218D01*
X1883003Y3262782D01*
X1883867Y3276600D01*
X1883003Y3290417D01*
X1880260Y3303981D01*
X1875840Y3317138D01*
X1869693Y3329533D01*
X1862023Y3341065D01*
X1852879Y3351479D01*
X1842465Y3360623D01*
X1830933Y3368294D01*
X1818538Y3374440D01*
X1805381Y3378860D01*
X1791817Y3381603D01*
X1778000Y3382467D01*
X1764182Y3381603D01*
X1750618Y3378860D01*
X1737461Y3374440D01*
X1725066Y3368294D01*
X1713534Y3360623D01*
X1703120Y3351479D01*
X1693976Y3341065D01*
X1686306Y3329533D01*
X1680159Y3317138D01*
X1675739Y3303981D01*
X1672996Y3290417D01*
X1672132Y3276600D01*
X1672996Y3262782D01*
X1675739Y3249218D01*
X1680159Y3236061D01*
X1686306Y3223666D01*
X1693976Y3212134D01*
X1703120Y3201720D01*
X1713534Y3192576D01*
X1725066Y3184906D01*
X1737461Y3178759D01*
X1750618Y3174339D01*
X1764182Y3171596D01*
G37*
G36*
X3615029Y3422954D02*
G01*
X3621633Y3426206D01*
X3633165Y3433876D01*
X3643579Y3443020D01*
X3652723Y3453434D01*
X3660394Y3464966D01*
X3663645Y3471570D01*
X3615029Y3471570D01*
G37*
G36*
X3522370Y3422954D02*
G01*
X3522370Y3471570D01*
X3473754Y3471570D01*
X3477006Y3464966D01*
X3484676Y3453434D01*
X3493820Y3443020D01*
X3504234Y3433876D01*
X3515766Y3426206D01*
G37*
G36*
X1985670Y3435654D02*
G01*
X1985670Y3484270D01*
X1937054Y3484270D01*
X1940306Y3477666D01*
X1947976Y3466134D01*
X1957120Y3455720D01*
X1967534Y3446576D01*
X1979066Y3438906D01*
G37*
G36*
X2078329Y3435654D02*
G01*
X2084933Y3438906D01*
X2096465Y3446576D01*
X2106879Y3455720D01*
X2116023Y3466134D01*
X2123694Y3477666D01*
X2126945Y3484270D01*
X2078329Y3484270D01*
G37*
G36*
X5734862Y3459835D02*
G01*
X5734862Y3515918D01*
X5678779Y3515918D01*
X5679744Y3513734D01*
X5687618Y3500729D01*
X5696966Y3488791D01*
X5707735Y3478022D01*
X5719673Y3468674D01*
X5732678Y3460800D01*
G37*
G36*
X5847537Y3459835D02*
G01*
X5849721Y3460800D01*
X5862726Y3468674D01*
X5874664Y3478022D01*
X5885434Y3488791D01*
X5894781Y3500729D01*
X5902655Y3513734D01*
X5903620Y3515918D01*
X5847537Y3515918D01*
G37*
G36*
X3615029Y3564229D02*
G01*
X3663645Y3564229D01*
X3660394Y3570833D01*
X3652723Y3582365D01*
X3643579Y3592779D01*
X3633165Y3601923D01*
X3621633Y3609594D01*
X3615029Y3612845D01*
G37*
G36*
X3473754Y3564229D02*
G01*
X3522370Y3564229D01*
X3522370Y3612845D01*
X3515766Y3609594D01*
X3504234Y3601923D01*
X3493820Y3592779D01*
X3484676Y3582365D01*
X3477006Y3570833D01*
G37*
G36*
X1937054Y3576929D02*
G01*
X1985670Y3576929D01*
X1985670Y3625545D01*
X1979066Y3622294D01*
X1967534Y3614623D01*
X1957120Y3605479D01*
X1947976Y3595065D01*
X1940306Y3583533D01*
G37*
G36*
X2078329Y3576929D02*
G01*
X2126945Y3576929D01*
X2123694Y3583533D01*
X2116023Y3595065D01*
X2106879Y3605479D01*
X2096465Y3614623D01*
X2084933Y3622294D01*
X2078329Y3625545D01*
G37*
G36*
X5678779Y3628593D02*
G01*
X5734862Y3628593D01*
X5734862Y3684676D01*
X5732678Y3683711D01*
X5719673Y3675837D01*
X5707735Y3666490D01*
X5696966Y3655720D01*
X5687618Y3643782D01*
X5679744Y3630777D01*
G37*
G36*
X5847537Y3628593D02*
G01*
X5903620Y3628593D01*
X5902655Y3630777D01*
X5894781Y3643782D01*
X5885434Y3655720D01*
X5874664Y3666490D01*
X5862726Y3675837D01*
X5849721Y3683711D01*
X5847537Y3684676D01*
G37*
G36*
X5791200Y3947261D02*
G01*
X5806389Y3948176D01*
X5821324Y3950919D01*
X5835853Y3955440D01*
X5849721Y3961688D01*
X5862726Y3969562D01*
X5874664Y3978910D01*
X5885434Y3989679D01*
X5894781Y4001617D01*
X5902655Y4014622D01*
X5908903Y4028490D01*
X5913424Y4043019D01*
X5916168Y4057954D01*
X5917082Y4073144D01*
X5916168Y4088333D01*
X5913424Y4103268D01*
X5908903Y4117797D01*
X5902655Y4131665D01*
X5894781Y4144670D01*
X5885434Y4156608D01*
X5874664Y4167378D01*
X5862726Y4176725D01*
X5849721Y4184599D01*
X5835853Y4190847D01*
X5821324Y4195368D01*
X5806389Y4198112D01*
X5791200Y4199026D01*
X5776010Y4198112D01*
X5761075Y4195368D01*
X5746546Y4190847D01*
X5732678Y4184599D01*
X5719673Y4176725D01*
X5707735Y4167378D01*
X5696966Y4156608D01*
X5687618Y4144670D01*
X5679744Y4131665D01*
X5673496Y4117797D01*
X5668975Y4103268D01*
X5666232Y4088333D01*
X5665317Y4073144D01*
X5666232Y4057954D01*
X5668975Y4043019D01*
X5673496Y4028490D01*
X5679744Y4014622D01*
X5687618Y4001617D01*
X5696966Y3989679D01*
X5707735Y3978910D01*
X5719673Y3969562D01*
X5732678Y3961688D01*
X5746546Y3955440D01*
X5761075Y3950919D01*
X5776010Y3948176D01*
G37*
G36*
X5168900Y4237482D02*
G01*
X5182717Y4238396D01*
X5196332Y4241088D01*
X5209438Y4245559D01*
X5221833Y4251706D01*
X5233365Y4259376D01*
X5243779Y4268520D01*
X5252923Y4278934D01*
X5260594Y4290466D01*
X5266740Y4302861D01*
X5271211Y4315968D01*
X5273903Y4329582D01*
X5274818Y4343400D01*
X5273903Y4357217D01*
X5271211Y4370832D01*
X5266740Y4383938D01*
X5260594Y4396333D01*
X5252923Y4407865D01*
X5243779Y4418279D01*
X5233365Y4427423D01*
X5221833Y4435094D01*
X5209438Y4441240D01*
X5196332Y4445711D01*
X5182717Y4448403D01*
X5168900Y4449318D01*
X5155082Y4448403D01*
X5141468Y4445711D01*
X5128361Y4441240D01*
X5115966Y4435094D01*
X5104434Y4427423D01*
X5094020Y4418279D01*
X5084876Y4407865D01*
X5077206Y4396333D01*
X5071059Y4383938D01*
X5066588Y4370832D01*
X5063896Y4357217D01*
X5062982Y4343400D01*
X5063896Y4329582D01*
X5066588Y4315968D01*
X5071059Y4302861D01*
X5077206Y4290466D01*
X5084876Y4278934D01*
X5094020Y4268520D01*
X5104434Y4259376D01*
X5115966Y4251706D01*
X5128361Y4245559D01*
X5141468Y4241088D01*
X5155082Y4238396D01*
G37*
G36*
X3877970Y4377232D02*
G01*
X3891838Y4378096D01*
X3905402Y4380839D01*
X3918508Y4385259D01*
X3930954Y4391406D01*
X3942435Y4399076D01*
X3952849Y4408220D01*
X3961993Y4418634D01*
X3969715Y4430166D01*
X3975811Y4442561D01*
X3980281Y4455718D01*
X3982974Y4469282D01*
X3983888Y4483100D01*
X3982974Y4496917D01*
X3980281Y4510481D01*
X3975811Y4523638D01*
X3969715Y4536033D01*
X3961993Y4547565D01*
X3952849Y4557979D01*
X3942435Y4567123D01*
X3930954Y4574794D01*
X3918508Y4580940D01*
X3905402Y4585360D01*
X3891838Y4588103D01*
X3877970Y4588967D01*
X3864152Y4588103D01*
X3850589Y4585360D01*
X3837482Y4580940D01*
X3825036Y4574794D01*
X3813556Y4567123D01*
X3803142Y4557979D01*
X3793998Y4547565D01*
X3786276Y4536033D01*
X3780180Y4523638D01*
X3775710Y4510481D01*
X3773017Y4496917D01*
X3772103Y4483100D01*
X3773017Y4469282D01*
X3775710Y4455718D01*
X3780180Y4442561D01*
X3786276Y4430166D01*
X3793998Y4418634D01*
X3803142Y4408220D01*
X3813556Y4399076D01*
X3825036Y4391406D01*
X3837482Y4385259D01*
X3850589Y4380839D01*
X3864152Y4378096D01*
G37*
G36*
X2218029Y4377232D02*
G01*
X2231847Y4378096D01*
X2245410Y4380839D01*
X2258517Y4385259D01*
X2270963Y4391406D01*
X2282444Y4399076D01*
X2292858Y4408220D01*
X2302002Y4418634D01*
X2309723Y4430166D01*
X2315819Y4442561D01*
X2320290Y4455718D01*
X2322982Y4469282D01*
X2323896Y4483100D01*
X2322982Y4496917D01*
X2320290Y4510481D01*
X2315819Y4523638D01*
X2309723Y4536033D01*
X2302002Y4547565D01*
X2292858Y4557979D01*
X2282444Y4567123D01*
X2270963Y4574794D01*
X2258517Y4580940D01*
X2245410Y4585360D01*
X2231847Y4588103D01*
X2218029Y4588967D01*
X2204161Y4588103D01*
X2190597Y4585360D01*
X2177491Y4580940D01*
X2165045Y4574794D01*
X2153564Y4567123D01*
X2143150Y4557979D01*
X2134006Y4547565D01*
X2126284Y4536033D01*
X2120188Y4523638D01*
X2115718Y4510481D01*
X2113026Y4496917D01*
X2112111Y4483100D01*
X2113026Y4469282D01*
X2115718Y4455718D01*
X2120188Y4442561D01*
X2126284Y4430166D01*
X2134006Y4418634D01*
X2143150Y4408220D01*
X2153564Y4399076D01*
X2165045Y4391406D01*
X2177491Y4385259D01*
X2190597Y4380839D01*
X2204161Y4378096D01*
G37*
G36*
X1114348Y4438142D02*
G01*
X1273251Y4438142D01*
X1279550Y4438853D01*
X1285036Y4440783D01*
X1289913Y4443831D01*
X1294028Y4447946D01*
X1297076Y4452823D01*
X1299006Y4458309D01*
X1299718Y4464608D01*
X1299718Y4552391D01*
X1299006Y4558690D01*
X1297076Y4564176D01*
X1295552Y4566615D01*
X1294180Y4570120D01*
X1294180Y4573879D01*
X1295552Y4577384D01*
X1297076Y4579823D01*
X1299006Y4585309D01*
X1299718Y4591608D01*
X1299718Y4606899D01*
X1240180Y4606899D01*
X1240180Y4589018D01*
X1239367Y4585106D01*
X1237183Y4581855D01*
X1233881Y4579620D01*
X1230020Y4578858D01*
X1157630Y4578858D01*
X1153718Y4579620D01*
X1150416Y4581855D01*
X1148232Y4585106D01*
X1147470Y4589018D01*
X1147470Y4606899D01*
X1087882Y4606899D01*
X1087882Y4591608D01*
X1088593Y4585309D01*
X1090523Y4579823D01*
X1092047Y4577384D01*
X1093419Y4573879D01*
X1093419Y4570120D01*
X1092047Y4566615D01*
X1090523Y4564176D01*
X1088593Y4558690D01*
X1087882Y4552391D01*
X1087882Y4464608D01*
X1088593Y4458309D01*
X1090523Y4452823D01*
X1093571Y4447946D01*
X1097686Y4443831D01*
X1102563Y4440783D01*
X1108049Y4438853D01*
G37*
G36*
X5168900Y4491482D02*
G01*
X5182717Y4492396D01*
X5196332Y4495088D01*
X5209438Y4499559D01*
X5221833Y4505706D01*
X5233365Y4513376D01*
X5243779Y4522520D01*
X5252923Y4532934D01*
X5260594Y4544466D01*
X5266740Y4556861D01*
X5271211Y4569968D01*
X5273903Y4583582D01*
X5274818Y4597400D01*
X5273903Y4611217D01*
X5271211Y4624832D01*
X5266740Y4637938D01*
X5260594Y4650333D01*
X5252923Y4661865D01*
X5243779Y4672279D01*
X5233365Y4681423D01*
X5221833Y4689094D01*
X5209438Y4695240D01*
X5196332Y4699711D01*
X5182717Y4702403D01*
X5168900Y4703318D01*
X5155082Y4702403D01*
X5141468Y4699711D01*
X5128361Y4695240D01*
X5115966Y4689094D01*
X5104434Y4681423D01*
X5094020Y4672279D01*
X5084876Y4661865D01*
X5077206Y4650333D01*
X5071059Y4637938D01*
X5066588Y4624832D01*
X5063896Y4611217D01*
X5062982Y4597400D01*
X5063896Y4583582D01*
X5066588Y4569968D01*
X5071059Y4556861D01*
X5077206Y4544466D01*
X5084876Y4532934D01*
X5094020Y4522520D01*
X5104434Y4513376D01*
X5115966Y4505706D01*
X5128361Y4499559D01*
X5141468Y4495088D01*
X5155082Y4492396D01*
G37*
G36*
X4360570Y4502454D02*
G01*
X4360570Y4551019D01*
X4311954Y4551019D01*
X4315206Y4544466D01*
X4322876Y4532934D01*
X4332020Y4522520D01*
X4342434Y4513376D01*
X4353966Y4505706D01*
G37*
G36*
X4453280Y4502454D02*
G01*
X4459833Y4505706D01*
X4471365Y4513376D01*
X4481779Y4522520D01*
X4490923Y4532934D01*
X4498594Y4544466D01*
X4501845Y4551019D01*
X4453280Y4551019D01*
G37*
G36*
X2218029Y4631232D02*
G01*
X2231847Y4632096D01*
X2245410Y4634839D01*
X2258517Y4639259D01*
X2270963Y4645406D01*
X2282444Y4653076D01*
X2292858Y4662220D01*
X2302002Y4672634D01*
X2309723Y4684166D01*
X2315819Y4696561D01*
X2320290Y4709718D01*
X2322982Y4723282D01*
X2323896Y4737100D01*
X2322982Y4750917D01*
X2320290Y4764481D01*
X2315819Y4777638D01*
X2309723Y4790033D01*
X2302002Y4801565D01*
X2292858Y4811979D01*
X2282444Y4821123D01*
X2270963Y4828794D01*
X2258517Y4834940D01*
X2245410Y4839360D01*
X2231847Y4842103D01*
X2218029Y4842967D01*
X2204161Y4842103D01*
X2190597Y4839360D01*
X2177491Y4834940D01*
X2165045Y4828794D01*
X2153564Y4821123D01*
X2143150Y4811979D01*
X2134006Y4801565D01*
X2126284Y4790033D01*
X2120188Y4777638D01*
X2115718Y4764481D01*
X2113026Y4750917D01*
X2112111Y4737100D01*
X2113026Y4723282D01*
X2115718Y4709718D01*
X2120188Y4696561D01*
X2126284Y4684166D01*
X2134006Y4672634D01*
X2143150Y4662220D01*
X2153564Y4653076D01*
X2165045Y4645406D01*
X2177491Y4639259D01*
X2190597Y4634839D01*
X2204161Y4632096D01*
G37*
G36*
X3877970Y4631232D02*
G01*
X3891838Y4632096D01*
X3905402Y4634839D01*
X3918508Y4639259D01*
X3930954Y4645406D01*
X3942435Y4653076D01*
X3952849Y4662220D01*
X3961993Y4672634D01*
X3969715Y4684166D01*
X3975811Y4696561D01*
X3980281Y4709718D01*
X3982974Y4723282D01*
X3983888Y4737100D01*
X3982974Y4750917D01*
X3980281Y4764481D01*
X3975811Y4777638D01*
X3969715Y4790033D01*
X3961993Y4801565D01*
X3952849Y4811979D01*
X3942435Y4821123D01*
X3930954Y4828794D01*
X3918508Y4834940D01*
X3905402Y4839360D01*
X3891838Y4842103D01*
X3877970Y4842967D01*
X3864152Y4842103D01*
X3850589Y4839360D01*
X3837482Y4834940D01*
X3825036Y4828794D01*
X3813556Y4821123D01*
X3803142Y4811979D01*
X3793998Y4801565D01*
X3786276Y4790033D01*
X3780180Y4777638D01*
X3775710Y4764481D01*
X3773017Y4750917D01*
X3772103Y4737100D01*
X3773017Y4723282D01*
X3775710Y4709718D01*
X3780180Y4696561D01*
X3786276Y4684166D01*
X3793998Y4672634D01*
X3803142Y4662220D01*
X3813556Y4653076D01*
X3825036Y4645406D01*
X3837482Y4639259D01*
X3850589Y4634839D01*
X3864152Y4632096D01*
G37*
G36*
X4453280Y4643729D02*
G01*
X4501845Y4643729D01*
X4498594Y4650333D01*
X4490923Y4661865D01*
X4481779Y4672279D01*
X4471365Y4681423D01*
X4459833Y4689094D01*
X4453280Y4692345D01*
G37*
G36*
X4311954Y4643729D02*
G01*
X4360570Y4643729D01*
X4360570Y4692345D01*
X4353966Y4689094D01*
X4342434Y4681423D01*
X4332020Y4672279D01*
X4322876Y4661865D01*
X4315206Y4650333D01*
G37*
G36*
X1087882Y4664049D02*
G01*
X1147470Y4664049D01*
X1147470Y4681982D01*
X1148232Y4685893D01*
X1150416Y4689144D01*
X1153718Y4691380D01*
X1157630Y4692142D01*
X1230020Y4692142D01*
X1233881Y4691380D01*
X1237183Y4689144D01*
X1239367Y4685893D01*
X1240180Y4681982D01*
X1240180Y4664049D01*
X1299718Y4664049D01*
X1299718Y4679391D01*
X1299006Y4685690D01*
X1297076Y4691176D01*
X1295552Y4693615D01*
X1294180Y4697120D01*
X1294180Y4700879D01*
X1295552Y4704384D01*
X1297076Y4706823D01*
X1299006Y4712309D01*
X1299718Y4718608D01*
X1299718Y4806391D01*
X1299006Y4812690D01*
X1297076Y4818176D01*
X1295552Y4820615D01*
X1294180Y4824120D01*
X1294180Y4827879D01*
X1295552Y4831384D01*
X1297076Y4833823D01*
X1299006Y4839309D01*
X1299718Y4845608D01*
X1299718Y4933391D01*
X1299006Y4939690D01*
X1297076Y4945176D01*
X1294028Y4950053D01*
X1289913Y4954168D01*
X1285036Y4957216D01*
X1279550Y4959146D01*
X1273251Y4959858D01*
X1114348Y4959858D01*
X1108049Y4959146D01*
X1102563Y4957216D01*
X1097686Y4954168D01*
X1093571Y4950053D01*
X1090523Y4945176D01*
X1088593Y4939690D01*
X1087882Y4933391D01*
X1087882Y4845608D01*
X1088593Y4839309D01*
X1090523Y4833823D01*
X1092047Y4831384D01*
X1093419Y4827879D01*
X1093419Y4824120D01*
X1092047Y4820615D01*
X1090523Y4818176D01*
X1088593Y4812690D01*
X1087882Y4806391D01*
X1087882Y4718608D01*
X1088593Y4712309D01*
X1090523Y4706823D01*
X1092047Y4704384D01*
X1093419Y4700879D01*
X1093419Y4697120D01*
X1092047Y4693615D01*
X1090523Y4691176D01*
X1088593Y4685690D01*
X1087882Y4679391D01*
G37*
G36*
X5168900Y4745482D02*
G01*
X5182717Y4746396D01*
X5196332Y4749088D01*
X5209438Y4753559D01*
X5221833Y4759706D01*
X5233365Y4767376D01*
X5243779Y4776520D01*
X5252923Y4786934D01*
X5260594Y4798466D01*
X5266740Y4810861D01*
X5271211Y4823968D01*
X5273903Y4837582D01*
X5274818Y4851400D01*
X5273903Y4865217D01*
X5271211Y4878832D01*
X5266740Y4891938D01*
X5260594Y4904333D01*
X5252923Y4915865D01*
X5243779Y4926279D01*
X5233365Y4935423D01*
X5221833Y4943094D01*
X5209438Y4949240D01*
X5196332Y4953711D01*
X5182717Y4956403D01*
X5168900Y4957318D01*
X5155082Y4956403D01*
X5141468Y4953711D01*
X5128361Y4949240D01*
X5115966Y4943094D01*
X5104434Y4935423D01*
X5094020Y4926279D01*
X5084876Y4915865D01*
X5077206Y4904333D01*
X5071059Y4891938D01*
X5066588Y4878832D01*
X5063896Y4865217D01*
X5062982Y4851400D01*
X5063896Y4837582D01*
X5066588Y4823968D01*
X5071059Y4810861D01*
X5077206Y4798466D01*
X5084876Y4786934D01*
X5094020Y4776520D01*
X5104434Y4767376D01*
X5115966Y4759706D01*
X5128361Y4753559D01*
X5141468Y4749088D01*
X5155082Y4746396D01*
G37*
G36*
X4406900Y4745482D02*
G01*
X4420717Y4746396D01*
X4434332Y4749088D01*
X4447438Y4753559D01*
X4459833Y4759706D01*
X4471365Y4767376D01*
X4481779Y4776520D01*
X4490923Y4786934D01*
X4498594Y4798466D01*
X4504740Y4810861D01*
X4509211Y4823968D01*
X4511903Y4837582D01*
X4512818Y4851400D01*
X4511903Y4865217D01*
X4509211Y4878832D01*
X4504740Y4891938D01*
X4498594Y4904333D01*
X4490923Y4915865D01*
X4481779Y4926279D01*
X4471365Y4935423D01*
X4459833Y4943094D01*
X4447438Y4949240D01*
X4434332Y4953711D01*
X4420717Y4956403D01*
X4406900Y4957318D01*
X4393082Y4956403D01*
X4379468Y4953711D01*
X4366361Y4949240D01*
X4353966Y4943094D01*
X4342434Y4935423D01*
X4332020Y4926279D01*
X4322876Y4915865D01*
X4315206Y4904333D01*
X4309059Y4891938D01*
X4304588Y4878832D01*
X4301896Y4865217D01*
X4300982Y4851400D01*
X4301896Y4837582D01*
X4304588Y4823968D01*
X4309059Y4810861D01*
X4315206Y4798466D01*
X4322876Y4786934D01*
X4332020Y4776520D01*
X4342434Y4767376D01*
X4353966Y4759706D01*
X4366361Y4753559D01*
X4379468Y4749088D01*
X4393082Y4746396D01*
G37*
G36*
X2218029Y4885232D02*
G01*
X2231847Y4886096D01*
X2245410Y4888839D01*
X2258517Y4893259D01*
X2270963Y4899406D01*
X2282444Y4907076D01*
X2292858Y4916220D01*
X2302002Y4926634D01*
X2309723Y4938166D01*
X2315819Y4950561D01*
X2320290Y4963718D01*
X2322982Y4977282D01*
X2323896Y4991100D01*
X2322982Y5004917D01*
X2320290Y5018481D01*
X2315819Y5031638D01*
X2309723Y5044033D01*
X2302002Y5055565D01*
X2292858Y5065979D01*
X2282444Y5075123D01*
X2270963Y5082794D01*
X2258517Y5088940D01*
X2245410Y5093360D01*
X2231847Y5096103D01*
X2218029Y5096967D01*
X2204161Y5096103D01*
X2190597Y5093360D01*
X2177491Y5088940D01*
X2165045Y5082794D01*
X2153564Y5075123D01*
X2143150Y5065979D01*
X2134006Y5055565D01*
X2126284Y5044033D01*
X2120188Y5031638D01*
X2115718Y5018481D01*
X2113026Y5004917D01*
X2112111Y4991100D01*
X2113026Y4977282D01*
X2115718Y4963718D01*
X2120188Y4950561D01*
X2126284Y4938166D01*
X2134006Y4926634D01*
X2143150Y4916220D01*
X2153564Y4907076D01*
X2165045Y4899406D01*
X2177491Y4893259D01*
X2190597Y4888839D01*
X2204161Y4886096D01*
G37*
G36*
X3877970Y4885232D02*
G01*
X3891838Y4886096D01*
X3905402Y4888839D01*
X3918508Y4893259D01*
X3930954Y4899406D01*
X3942435Y4907076D01*
X3952849Y4916220D01*
X3961993Y4926634D01*
X3969715Y4938166D01*
X3975811Y4950561D01*
X3980281Y4963718D01*
X3982974Y4977282D01*
X3983888Y4991100D01*
X3982974Y5004917D01*
X3980281Y5018481D01*
X3975811Y5031638D01*
X3969715Y5044033D01*
X3961993Y5055565D01*
X3952849Y5065979D01*
X3942435Y5075123D01*
X3930954Y5082794D01*
X3918508Y5088940D01*
X3905402Y5093360D01*
X3891838Y5096103D01*
X3877970Y5096967D01*
X3864152Y5096103D01*
X3850589Y5093360D01*
X3837482Y5088940D01*
X3825036Y5082794D01*
X3813556Y5075123D01*
X3803142Y5065979D01*
X3793998Y5055565D01*
X3786276Y5044033D01*
X3780180Y5031638D01*
X3775710Y5018481D01*
X3773017Y5004917D01*
X3772103Y4991100D01*
X3773017Y4977282D01*
X3775710Y4963718D01*
X3780180Y4950561D01*
X3786276Y4938166D01*
X3793998Y4926634D01*
X3803142Y4916220D01*
X3813556Y4907076D01*
X3825036Y4899406D01*
X3837482Y4893259D01*
X3850589Y4888839D01*
X3864152Y4886096D01*
G37*
G36*
X5734862Y4983835D02*
G01*
X5734862Y5039918D01*
X5678779Y5039918D01*
X5679744Y5037734D01*
X5687618Y5024729D01*
X5696966Y5012791D01*
X5707735Y5002022D01*
X5719673Y4992674D01*
X5732678Y4984800D01*
G37*
G36*
X5847537Y4983835D02*
G01*
X5849721Y4984800D01*
X5862726Y4992674D01*
X5874664Y5002022D01*
X5885434Y5012791D01*
X5894781Y5024729D01*
X5902655Y5037734D01*
X5903620Y5039918D01*
X5847537Y5039918D01*
G37*
G36*
X5168900Y4999482D02*
G01*
X5182717Y5000396D01*
X5196332Y5003088D01*
X5209438Y5007559D01*
X5221833Y5013706D01*
X5233365Y5021376D01*
X5243779Y5030520D01*
X5252923Y5040934D01*
X5260594Y5052466D01*
X5266740Y5064861D01*
X5271211Y5077968D01*
X5273903Y5091582D01*
X5274818Y5105400D01*
X5273903Y5119217D01*
X5271211Y5132832D01*
X5266740Y5145938D01*
X5260594Y5158333D01*
X5252923Y5169865D01*
X5243779Y5180279D01*
X5233365Y5189423D01*
X5221833Y5197094D01*
X5209438Y5203240D01*
X5196332Y5207711D01*
X5182717Y5210403D01*
X5168900Y5211318D01*
X5155082Y5210403D01*
X5141468Y5207711D01*
X5128361Y5203240D01*
X5115966Y5197094D01*
X5104434Y5189423D01*
X5094020Y5180279D01*
X5084876Y5169865D01*
X5077206Y5158333D01*
X5071059Y5145938D01*
X5066588Y5132832D01*
X5063896Y5119217D01*
X5062982Y5105400D01*
X5063896Y5091582D01*
X5066588Y5077968D01*
X5071059Y5064861D01*
X5077206Y5052466D01*
X5084876Y5040934D01*
X5094020Y5030520D01*
X5104434Y5021376D01*
X5115966Y5013706D01*
X5128361Y5007559D01*
X5141468Y5003088D01*
X5155082Y5000396D01*
G37*
G36*
X4327448Y4999482D02*
G01*
X4486351Y4999482D01*
X4492650Y5000193D01*
X4498136Y5002123D01*
X4503013Y5005171D01*
X4507128Y5009286D01*
X4510176Y5014163D01*
X4512106Y5019649D01*
X4512818Y5025948D01*
X4512818Y5184851D01*
X4512106Y5191150D01*
X4510176Y5196636D01*
X4507128Y5201513D01*
X4503013Y5205628D01*
X4498136Y5208676D01*
X4492650Y5210606D01*
X4486351Y5211318D01*
X4327448Y5211318D01*
X4321149Y5210606D01*
X4315663Y5208676D01*
X4310786Y5205628D01*
X4306671Y5201513D01*
X4303623Y5196636D01*
X4301693Y5191150D01*
X4300982Y5184851D01*
X4300982Y5025948D01*
X4301693Y5019649D01*
X4303623Y5014163D01*
X4306671Y5009286D01*
X4310786Y5005171D01*
X4315663Y5002123D01*
X4321149Y5000193D01*
G37*
G36*
X2218029Y5139232D02*
G01*
X2231847Y5140096D01*
X2245410Y5142839D01*
X2258517Y5147259D01*
X2270963Y5153406D01*
X2282444Y5161076D01*
X2292858Y5170220D01*
X2302002Y5180634D01*
X2309723Y5192166D01*
X2315819Y5204561D01*
X2320290Y5217718D01*
X2322982Y5231282D01*
X2323896Y5245100D01*
X2322982Y5258917D01*
X2320290Y5272481D01*
X2315819Y5285638D01*
X2309723Y5298033D01*
X2302002Y5309565D01*
X2292858Y5319979D01*
X2282444Y5329123D01*
X2270963Y5336794D01*
X2258517Y5342940D01*
X2245410Y5347360D01*
X2231847Y5350103D01*
X2218029Y5350967D01*
X2204161Y5350103D01*
X2190597Y5347360D01*
X2177491Y5342940D01*
X2165045Y5336794D01*
X2153564Y5329123D01*
X2143150Y5319979D01*
X2134006Y5309565D01*
X2126284Y5298033D01*
X2120188Y5285638D01*
X2115718Y5272481D01*
X2113026Y5258917D01*
X2112111Y5245100D01*
X2113026Y5231282D01*
X2115718Y5217718D01*
X2120188Y5204561D01*
X2126284Y5192166D01*
X2134006Y5180634D01*
X2143150Y5170220D01*
X2153564Y5161076D01*
X2165045Y5153406D01*
X2177491Y5147259D01*
X2190597Y5142839D01*
X2204161Y5140096D01*
G37*
G36*
X3877970Y5139232D02*
G01*
X3891838Y5140096D01*
X3905402Y5142839D01*
X3918508Y5147259D01*
X3930954Y5153406D01*
X3942435Y5161076D01*
X3952849Y5170220D01*
X3961993Y5180634D01*
X3969715Y5192166D01*
X3975811Y5204561D01*
X3980281Y5217718D01*
X3982974Y5231282D01*
X3983888Y5245100D01*
X3982974Y5258917D01*
X3980281Y5272481D01*
X3975811Y5285638D01*
X3969715Y5298033D01*
X3961993Y5309565D01*
X3952849Y5319979D01*
X3942435Y5329123D01*
X3930954Y5336794D01*
X3918508Y5342940D01*
X3905402Y5347360D01*
X3891838Y5350103D01*
X3877970Y5350967D01*
X3864152Y5350103D01*
X3850589Y5347360D01*
X3837482Y5342940D01*
X3825036Y5336794D01*
X3813556Y5329123D01*
X3803142Y5319979D01*
X3793998Y5309565D01*
X3786276Y5298033D01*
X3780180Y5285638D01*
X3775710Y5272481D01*
X3773017Y5258917D01*
X3772103Y5245100D01*
X3773017Y5231282D01*
X3775710Y5217718D01*
X3780180Y5204561D01*
X3786276Y5192166D01*
X3793998Y5180634D01*
X3803142Y5170220D01*
X3813556Y5161076D01*
X3825036Y5153406D01*
X3837482Y5147259D01*
X3850589Y5142839D01*
X3864152Y5140096D01*
G37*
G36*
X5678779Y5152593D02*
G01*
X5734862Y5152593D01*
X5734862Y5208676D01*
X5732678Y5207711D01*
X5719673Y5199837D01*
X5707735Y5190490D01*
X5696966Y5179720D01*
X5687618Y5167782D01*
X5679744Y5154777D01*
G37*
G36*
X5847537Y5152593D02*
G01*
X5903620Y5152593D01*
X5902655Y5154777D01*
X5894781Y5167782D01*
X5885434Y5179720D01*
X5874664Y5190490D01*
X5862726Y5199837D01*
X5849721Y5207711D01*
X5847537Y5208676D01*
G37*
G36*
X2218029Y5393232D02*
G01*
X2231847Y5394096D01*
X2245410Y5396839D01*
X2258517Y5401259D01*
X2270963Y5407406D01*
X2282444Y5415076D01*
X2292858Y5424220D01*
X2302002Y5434634D01*
X2309723Y5446166D01*
X2315819Y5458561D01*
X2320290Y5471718D01*
X2322982Y5485282D01*
X2323896Y5499100D01*
X2322982Y5512917D01*
X2320290Y5526481D01*
X2315819Y5539638D01*
X2309723Y5552033D01*
X2302002Y5563565D01*
X2292858Y5573979D01*
X2282444Y5583123D01*
X2270963Y5590794D01*
X2258517Y5596940D01*
X2245410Y5601360D01*
X2231847Y5604103D01*
X2218029Y5604967D01*
X2204161Y5604103D01*
X2190597Y5601360D01*
X2177491Y5596940D01*
X2165045Y5590794D01*
X2153564Y5583123D01*
X2143150Y5573979D01*
X2134006Y5563565D01*
X2126284Y5552033D01*
X2120188Y5539638D01*
X2115718Y5526481D01*
X2113026Y5512917D01*
X2112111Y5499100D01*
X2113026Y5485282D01*
X2115718Y5471718D01*
X2120188Y5458561D01*
X2126284Y5446166D01*
X2134006Y5434634D01*
X2143150Y5424220D01*
X2153564Y5415076D01*
X2165045Y5407406D01*
X2177491Y5401259D01*
X2190597Y5396839D01*
X2204161Y5394096D01*
G37*
G36*
X5791200Y5471261D02*
G01*
X5806389Y5472176D01*
X5821324Y5474919D01*
X5835853Y5479440D01*
X5849721Y5485688D01*
X5862726Y5493562D01*
X5874664Y5502910D01*
X5885434Y5513679D01*
X5894781Y5525617D01*
X5902655Y5538622D01*
X5908903Y5552490D01*
X5913424Y5567019D01*
X5916168Y5581954D01*
X5917082Y5597144D01*
X5916168Y5612333D01*
X5913424Y5627268D01*
X5908903Y5641797D01*
X5902655Y5655665D01*
X5894781Y5668670D01*
X5885434Y5680608D01*
X5874664Y5691378D01*
X5862726Y5700725D01*
X5849721Y5708599D01*
X5835853Y5714847D01*
X5821324Y5719368D01*
X5806389Y5722112D01*
X5791200Y5723026D01*
X5776010Y5722112D01*
X5761075Y5719368D01*
X5746546Y5714847D01*
X5732678Y5708599D01*
X5719673Y5700725D01*
X5707735Y5691378D01*
X5696966Y5680608D01*
X5687618Y5668670D01*
X5679744Y5655665D01*
X5673496Y5641797D01*
X5668975Y5627268D01*
X5666232Y5612333D01*
X5665317Y5597144D01*
X5666232Y5581954D01*
X5668975Y5567019D01*
X5673496Y5552490D01*
X5679744Y5538622D01*
X5687618Y5525617D01*
X5696966Y5513679D01*
X5707735Y5502910D01*
X5719673Y5493562D01*
X5732678Y5485688D01*
X5746546Y5479440D01*
X5761075Y5474919D01*
X5776010Y5472176D01*
G37*
G36*
X2218029Y5647232D02*
G01*
X2231847Y5648096D01*
X2245410Y5650839D01*
X2258517Y5655259D01*
X2270963Y5661406D01*
X2282444Y5669076D01*
X2292858Y5678220D01*
X2302002Y5688634D01*
X2309723Y5700166D01*
X2315819Y5712561D01*
X2320290Y5725718D01*
X2322982Y5739282D01*
X2323896Y5753100D01*
X2322982Y5766917D01*
X2320290Y5780481D01*
X2315819Y5793638D01*
X2309723Y5806033D01*
X2302002Y5817565D01*
X2292858Y5827979D01*
X2282444Y5837123D01*
X2270963Y5844794D01*
X2258517Y5850940D01*
X2245410Y5855360D01*
X2231847Y5858103D01*
X2218029Y5858967D01*
X2204161Y5858103D01*
X2190597Y5855360D01*
X2177491Y5850940D01*
X2165045Y5844794D01*
X2153564Y5837123D01*
X2143150Y5827979D01*
X2134006Y5817565D01*
X2126284Y5806033D01*
X2120188Y5793638D01*
X2115718Y5780481D01*
X2113026Y5766917D01*
X2112111Y5753100D01*
X2113026Y5739282D01*
X2115718Y5725718D01*
X2120188Y5712561D01*
X2126284Y5700166D01*
X2134006Y5688634D01*
X2143150Y5678220D01*
X2153564Y5669076D01*
X2165045Y5661406D01*
X2177491Y5655259D01*
X2190597Y5650839D01*
X2204161Y5648096D01*
G37*
G36*
X3831640Y5658154D02*
G01*
X3831640Y5706770D01*
X3783025Y5706770D01*
X3786276Y5700166D01*
X3793998Y5688634D01*
X3803142Y5678220D01*
X3813556Y5669076D01*
X3825036Y5661406D01*
G37*
G36*
X3924350Y5658154D02*
G01*
X3930954Y5661406D01*
X3942435Y5669076D01*
X3952849Y5678220D01*
X3961993Y5688634D01*
X3969715Y5700166D01*
X3972966Y5706770D01*
X3924350Y5706770D01*
G37*
G36*
X3783025Y5799429D02*
G01*
X3831640Y5799429D01*
X3831640Y5848045D01*
X3825036Y5844794D01*
X3813556Y5837123D01*
X3803142Y5827979D01*
X3793998Y5817565D01*
X3786276Y5806033D01*
G37*
G36*
X3924350Y5799429D02*
G01*
X3972966Y5799429D01*
X3969715Y5806033D01*
X3961993Y5817565D01*
X3952849Y5827979D01*
X3942435Y5837123D01*
X3930954Y5844794D01*
X3924350Y5848045D01*
G37*
G36*
X3877970Y5901232D02*
G01*
X3891838Y5902096D01*
X3905402Y5904839D01*
X3918508Y5909259D01*
X3930954Y5915406D01*
X3942435Y5923076D01*
X3952849Y5932220D01*
X3961993Y5942634D01*
X3969715Y5954166D01*
X3975811Y5966561D01*
X3980281Y5979718D01*
X3982974Y5993282D01*
X3983888Y6007100D01*
X3982974Y6020917D01*
X3980281Y6034481D01*
X3975811Y6047638D01*
X3969715Y6060033D01*
X3961993Y6071565D01*
X3952849Y6081979D01*
X3942435Y6091123D01*
X3930954Y6098794D01*
X3918508Y6104940D01*
X3905402Y6109360D01*
X3891838Y6112103D01*
X3877970Y6112967D01*
X3864152Y6112103D01*
X3850589Y6109360D01*
X3837482Y6104940D01*
X3825036Y6098794D01*
X3813556Y6091123D01*
X3803142Y6081979D01*
X3793998Y6071565D01*
X3786276Y6060033D01*
X3780180Y6047638D01*
X3775710Y6034481D01*
X3773017Y6020917D01*
X3772103Y6007100D01*
X3773017Y5993282D01*
X3775710Y5979718D01*
X3780180Y5966561D01*
X3786276Y5954166D01*
X3793998Y5942634D01*
X3803142Y5932220D01*
X3813556Y5923076D01*
X3825036Y5915406D01*
X3837482Y5909259D01*
X3850589Y5904839D01*
X3864152Y5902096D01*
G37*
G36*
X2218029Y5901232D02*
G01*
X2231847Y5902096D01*
X2245410Y5904839D01*
X2258517Y5909259D01*
X2270963Y5915406D01*
X2282444Y5923076D01*
X2292858Y5932220D01*
X2302002Y5942634D01*
X2309723Y5954166D01*
X2315819Y5966561D01*
X2320290Y5979718D01*
X2322982Y5993282D01*
X2323896Y6007100D01*
X2322982Y6020917D01*
X2320290Y6034481D01*
X2315819Y6047638D01*
X2309723Y6060033D01*
X2302002Y6071565D01*
X2292858Y6081979D01*
X2282444Y6091123D01*
X2270963Y6098794D01*
X2258517Y6104940D01*
X2245410Y6109360D01*
X2231847Y6112103D01*
X2218029Y6112967D01*
X2204161Y6112103D01*
X2190597Y6109360D01*
X2177491Y6104940D01*
X2165045Y6098794D01*
X2153564Y6091123D01*
X2143150Y6081979D01*
X2134006Y6071565D01*
X2126284Y6060033D01*
X2120188Y6047638D01*
X2115718Y6034481D01*
X2113026Y6020917D01*
X2112111Y6007100D01*
X2113026Y5993282D01*
X2115718Y5979718D01*
X2120188Y5966561D01*
X2126284Y5954166D01*
X2134006Y5942634D01*
X2143150Y5932220D01*
X2153564Y5923076D01*
X2165045Y5915406D01*
X2177491Y5909259D01*
X2190597Y5904839D01*
X2204161Y5902096D01*
G37*
G36*
X1016000Y6097117D02*
G01*
X1031189Y6098032D01*
X1046124Y6100775D01*
X1060653Y6105296D01*
X1074521Y6111544D01*
X1087526Y6119418D01*
X1099464Y6128766D01*
X1110234Y6139535D01*
X1119581Y6151473D01*
X1127455Y6164478D01*
X1133703Y6178346D01*
X1138224Y6192875D01*
X1140968Y6207810D01*
X1141882Y6223000D01*
X1140968Y6238189D01*
X1138224Y6253124D01*
X1133703Y6267653D01*
X1127455Y6281521D01*
X1119581Y6294526D01*
X1110234Y6306464D01*
X1099464Y6317234D01*
X1087526Y6326581D01*
X1074521Y6334455D01*
X1060653Y6340703D01*
X1046124Y6345224D01*
X1031189Y6347968D01*
X1016000Y6348882D01*
X1000810Y6347968D01*
X985875Y6345224D01*
X971346Y6340703D01*
X957478Y6334455D01*
X944473Y6326581D01*
X932535Y6317234D01*
X921766Y6306464D01*
X912418Y6294526D01*
X904544Y6281521D01*
X898296Y6267653D01*
X893775Y6253124D01*
X891032Y6238189D01*
X890117Y6223000D01*
X891032Y6207810D01*
X893775Y6192875D01*
X898296Y6178346D01*
X904544Y6164478D01*
X912418Y6151473D01*
X921766Y6139535D01*
X932535Y6128766D01*
X944473Y6119418D01*
X957478Y6111544D01*
X971346Y6105296D01*
X985875Y6100775D01*
X1000810Y6098032D01*
G37*
G36*
X6108700Y6122517D02*
G01*
X6123889Y6123432D01*
X6138824Y6126175D01*
X6153353Y6130696D01*
X6167221Y6136944D01*
X6180226Y6144818D01*
X6192164Y6154166D01*
X6202934Y6164935D01*
X6212281Y6176873D01*
X6220155Y6189878D01*
X6226403Y6203746D01*
X6230924Y6218275D01*
X6233668Y6233210D01*
X6234582Y6248400D01*
X6233668Y6263589D01*
X6230924Y6278524D01*
X6226403Y6293053D01*
X6220155Y6306921D01*
X6212281Y6319926D01*
X6202934Y6331864D01*
X6192164Y6342634D01*
X6180226Y6351981D01*
X6167221Y6359855D01*
X6153353Y6366103D01*
X6138824Y6370624D01*
X6123889Y6373368D01*
X6108700Y6374282D01*
X6093510Y6373368D01*
X6078575Y6370624D01*
X6064046Y6366103D01*
X6050178Y6359855D01*
X6037173Y6351981D01*
X6025235Y6342634D01*
X6014466Y6331864D01*
X6005118Y6319926D01*
X5997244Y6306921D01*
X5990996Y6293053D01*
X5986475Y6278524D01*
X5983732Y6263589D01*
X5982817Y6248400D01*
X5983732Y6233210D01*
X5986475Y6218275D01*
X5990996Y6203746D01*
X5997244Y6189878D01*
X6005118Y6176873D01*
X6014466Y6164935D01*
X6025235Y6154166D01*
X6037173Y6144818D01*
X6050178Y6136944D01*
X6064046Y6130696D01*
X6078575Y6126175D01*
X6093510Y6123432D01*
G37*

%LPD*%
D10*
X2032000Y3022600D02*
G01*
X3543300Y3022600D01*
X3632200Y2933700D01*
X4406900Y4343400D02*
G01*
X4406900Y3111500D01*
X4292600Y2997200D01*
X3581400Y2997200D01*
X3568700Y3009900D01*
X3878072Y5499100D02*
G01*
X3365500Y5321300D01*
X3365500Y4279900D01*
X4406900Y4279900D01*
X4406900Y4343400D01*
D11*
G01*
X4406900Y5105400D03*
D12*
G01*
X4406900Y4851400D03*
G01*
X4406900Y4597400D03*
G01*
X4406900Y4343400D03*
G01*
X5168900Y4343400D03*
G01*
X5168900Y4597400D03*
G01*
X5168900Y4851400D03*
G01*
X5168900Y5105400D03*
D13*
G01*
X1016000Y6223000D03*
G01*
X1028700Y3048000D03*
G01*
X6108700Y6248400D03*
G01*
X6083300Y3048000D03*
D14*
G01*
X1778000Y3276600D03*
G01*
X2032000Y3022600D03*
G01*
X2032000Y3530600D03*
G01*
X3314700Y3263900D03*
G01*
X3568700Y3009900D03*
G01*
X3568700Y3517900D03*
D13*
G01*
X5791200Y5597144D03*
G01*
X5791200Y5096255D03*
G01*
X5791200Y4073144D03*
G01*
X5791200Y3572255D03*
D15*
G01*
X1193800Y4635500D03*
G01*
X1193800Y4508500D03*
G01*
X1193800Y4762500D03*
G01*
X1193800Y4889500D03*
D14*
G01*
X2218004Y6007100D03*
G01*
X2218004Y5753100D03*
G01*
X2218004Y5499100D03*
G01*
X2218004Y4991100D03*
G01*
X2218004Y4737100D03*
G01*
X2218004Y4483100D03*
G01*
X3877995Y6007100D03*
G01*
X3877995Y5753100D03*
G01*
X3877995Y5499100D03*
G01*
X3877995Y5245100D03*
G01*
X3877995Y4991100D03*
G01*
X3877995Y4737100D03*
G01*
X3877995Y4483100D03*
G01*
X2218004Y5245100D03*
M02*
