G04 Layer: TopSilkscreenLayer*
G04 EasyEDA v6.5.50, 2025-05-02 13:44:32*
G04 9c8b662e0eda49d2b6f133a678b52552,4ea17189a5af4923b0f09c00d4425dfb,10*
G04 Gerber Generator version 0.2*
G04 Scale: 100 percent, Rotated: No, Reflected: No *
G04 Dimensions in millimeters *
G04 leading zeros omitted , absolute positions ,4 integer and 5 decimal *
%FSLAX45Y45*%
%MOMM*%

%ADD10C,0.1524*%
%ADD11C,0.2540*%
%ADD12C,0.0114*%

%LPD*%
D10*
X2590800Y4166615D02*
G01*
X2663443Y4057650D01*
X2663443Y4166615D02*
G01*
X2590800Y4057650D01*
X2697734Y4166615D02*
G01*
X2697734Y4057650D01*
X2773679Y4166615D02*
G01*
X2732024Y4057650D01*
X2773679Y4166615D02*
G01*
X2815336Y4057650D01*
X2747772Y4093971D02*
G01*
X2799588Y4093971D01*
X2880613Y4166615D02*
G01*
X2870200Y4161536D01*
X2860040Y4151121D01*
X2854706Y4140707D01*
X2849625Y4124960D01*
X2849625Y4099052D01*
X2854706Y4083557D01*
X2860040Y4073144D01*
X2870200Y4062729D01*
X2880613Y4057650D01*
X2901441Y4057650D01*
X2911856Y4062729D01*
X2922270Y4073144D01*
X2927350Y4083557D01*
X2932684Y4099052D01*
X2932684Y4124960D01*
X2927350Y4140707D01*
X2922270Y4151121D01*
X2911856Y4161536D01*
X2901441Y4166615D01*
X2880613Y4166615D01*
X3046984Y4166615D02*
G01*
X3046984Y4057650D01*
X3046984Y4166615D02*
G01*
X3114547Y4166615D01*
X3046984Y4114800D02*
G01*
X3088640Y4114800D01*
X3046984Y4057650D02*
G01*
X3114547Y4057650D01*
X3221481Y4151121D02*
G01*
X3211068Y4161536D01*
X3195574Y4166615D01*
X3174745Y4166615D01*
X3159252Y4161536D01*
X3148838Y4151121D01*
X3148838Y4140707D01*
X3153918Y4130294D01*
X3159252Y4124960D01*
X3169665Y4119879D01*
X3200654Y4109465D01*
X3211068Y4104386D01*
X3216402Y4099052D01*
X3221481Y4088637D01*
X3221481Y4073144D01*
X3211068Y4062729D01*
X3195574Y4057650D01*
X3174745Y4057650D01*
X3159252Y4062729D01*
X3148838Y4073144D01*
X3255772Y4166615D02*
G01*
X3255772Y4057650D01*
X3255772Y4166615D02*
G01*
X3302508Y4166615D01*
X3318256Y4161536D01*
X3323336Y4156202D01*
X3328670Y4145787D01*
X3328670Y4130294D01*
X3323336Y4119879D01*
X3318256Y4114800D01*
X3302508Y4109465D01*
X3255772Y4109465D01*
X3373120Y4166615D02*
G01*
X3430270Y4166615D01*
X3399281Y4124960D01*
X3414775Y4124960D01*
X3425190Y4119879D01*
X3430270Y4114800D01*
X3435604Y4099052D01*
X3435604Y4088637D01*
X3430270Y4073144D01*
X3420109Y4062729D01*
X3404361Y4057650D01*
X3388868Y4057650D01*
X3373120Y4062729D01*
X3368040Y4067810D01*
X3362959Y4078223D01*
X3474974Y4140707D02*
G01*
X3474974Y4145787D01*
X3480308Y4156202D01*
X3485388Y4161536D01*
X3495802Y4166615D01*
X3516629Y4166615D01*
X3527043Y4161536D01*
X3532124Y4156202D01*
X3537458Y4145787D01*
X3537458Y4135373D01*
X3532124Y4124960D01*
X3521709Y4109465D01*
X3469893Y4057650D01*
X3542538Y4057650D01*
X3654806Y4140707D02*
G01*
X3649725Y4151121D01*
X3639311Y4161536D01*
X3628897Y4166615D01*
X3608070Y4166615D01*
X3597656Y4161536D01*
X3587241Y4151121D01*
X3582161Y4140707D01*
X3576827Y4124960D01*
X3576827Y4099052D01*
X3582161Y4083557D01*
X3587241Y4073144D01*
X3597656Y4062729D01*
X3608070Y4057650D01*
X3628897Y4057650D01*
X3639311Y4062729D01*
X3649725Y4073144D01*
X3654806Y4083557D01*
X3699509Y4166615D02*
G01*
X3756659Y4166615D01*
X3725418Y4124960D01*
X3741165Y4124960D01*
X3751579Y4119879D01*
X3756659Y4114800D01*
X3761740Y4099052D01*
X3761740Y4088637D01*
X3756659Y4073144D01*
X3746245Y4062729D01*
X3730752Y4057650D01*
X3715004Y4057650D01*
X3699509Y4062729D01*
X3694429Y4067810D01*
X3689095Y4078223D01*
X4519422Y4128515D02*
G01*
X4519422Y4019550D01*
X4483100Y4128515D02*
G01*
X4555743Y4128515D01*
X4631690Y4128515D02*
G01*
X4590034Y4019550D01*
X4631690Y4128515D02*
G01*
X4673345Y4019550D01*
X4605781Y4055871D02*
G01*
X4657597Y4055871D01*
X4769865Y4113021D02*
G01*
X4764786Y4123436D01*
X4749038Y4128515D01*
X4738624Y4128515D01*
X4723129Y4123436D01*
X4712715Y4107687D01*
X4707636Y4081779D01*
X4707636Y4055871D01*
X4712715Y4035044D01*
X4723129Y4024629D01*
X4738624Y4019550D01*
X4743958Y4019550D01*
X4759452Y4024629D01*
X4769865Y4035044D01*
X4775200Y4050537D01*
X4775200Y4055871D01*
X4769865Y4071365D01*
X4759452Y4081779D01*
X4743958Y4086860D01*
X4738624Y4086860D01*
X4723129Y4081779D01*
X4712715Y4071365D01*
X4707636Y4055871D01*
X4871720Y4128515D02*
G01*
X4819650Y4128515D01*
X4814570Y4081779D01*
X4819650Y4086860D01*
X4835397Y4092194D01*
X4850891Y4092194D01*
X4866640Y4086860D01*
X4876800Y4076700D01*
X4882134Y4060952D01*
X4882134Y4050537D01*
X4876800Y4035044D01*
X4866640Y4024629D01*
X4850891Y4019550D01*
X4835397Y4019550D01*
X4819650Y4024629D01*
X4814570Y4029710D01*
X4809490Y4040123D01*
X4942331Y4128515D02*
G01*
X4926838Y4123436D01*
X4921504Y4113021D01*
X4921504Y4102607D01*
X4926838Y4092194D01*
X4937252Y4086860D01*
X4958079Y4081779D01*
X4973574Y4076700D01*
X4983988Y4066286D01*
X4989068Y4055871D01*
X4989068Y4040123D01*
X4983988Y4029710D01*
X4978654Y4024629D01*
X4963159Y4019550D01*
X4942331Y4019550D01*
X4926838Y4024629D01*
X4921504Y4029710D01*
X4916424Y4040123D01*
X4916424Y4055871D01*
X4921504Y4066286D01*
X4931918Y4076700D01*
X4947665Y4081779D01*
X4968240Y4086860D01*
X4978654Y4092194D01*
X4983988Y4102607D01*
X4983988Y4113021D01*
X4978654Y4123436D01*
X4963159Y4128515D01*
X4942331Y4128515D01*
X5085841Y4113021D02*
G01*
X5080508Y4123436D01*
X5065013Y4128515D01*
X5054600Y4128515D01*
X5039106Y4123436D01*
X5028691Y4107687D01*
X5023358Y4081779D01*
X5023358Y4055871D01*
X5028691Y4035044D01*
X5039106Y4024629D01*
X5054600Y4019550D01*
X5059679Y4019550D01*
X5075427Y4024629D01*
X5085841Y4035044D01*
X5090922Y4050537D01*
X5090922Y4055871D01*
X5085841Y4071365D01*
X5075427Y4081779D01*
X5059679Y4086860D01*
X5054600Y4086860D01*
X5039106Y4081779D01*
X5028691Y4071365D01*
X5023358Y4055871D01*
X1676400Y3899915D02*
G01*
X1676400Y3790950D01*
X1676400Y3899915D02*
G01*
X1743963Y3899915D01*
X1676400Y3848100D02*
G01*
X1718055Y3848100D01*
X1819910Y3899915D02*
G01*
X1778254Y3790950D01*
X1819910Y3899915D02*
G01*
X1861312Y3790950D01*
X1793747Y3827271D02*
G01*
X1845818Y3827271D01*
X1895602Y3899915D02*
G01*
X1895602Y3790950D01*
X1895602Y3899915D02*
G01*
X1968500Y3790950D01*
X1968500Y3899915D02*
G01*
X1968500Y3790950D01*
X2075434Y3884421D02*
G01*
X2065020Y3894836D01*
X2049525Y3899915D01*
X2028697Y3899915D01*
X2012950Y3894836D01*
X2002790Y3884421D01*
X2002790Y3874007D01*
X2007870Y3863594D01*
X2012950Y3858260D01*
X2023363Y3853179D01*
X2054606Y3842765D01*
X2065020Y3837686D01*
X2070100Y3832352D01*
X2075434Y3821937D01*
X2075434Y3806444D01*
X2065020Y3796029D01*
X2049525Y3790950D01*
X2028697Y3790950D01*
X2012950Y3796029D01*
X2002790Y3806444D01*
X2109724Y3899915D02*
G01*
X2109724Y3790950D01*
X2109724Y3899915D02*
G01*
X2156459Y3899915D01*
X2171954Y3894836D01*
X2177288Y3889502D01*
X2182368Y3879087D01*
X2182368Y3863594D01*
X2177288Y3853179D01*
X2171954Y3848100D01*
X2156459Y3842765D01*
X2109724Y3842765D01*
X2216658Y3899915D02*
G01*
X2216658Y3790950D01*
X2216658Y3899915D02*
G01*
X2284222Y3899915D01*
X2216658Y3848100D02*
G01*
X2258313Y3848100D01*
X2216658Y3790950D02*
G01*
X2284222Y3790950D01*
X2318511Y3899915D02*
G01*
X2318511Y3790950D01*
X2318511Y3899915D02*
G01*
X2386075Y3899915D01*
X2318511Y3848100D02*
G01*
X2360168Y3848100D01*
X2318511Y3790950D02*
G01*
X2386075Y3790950D01*
X2420365Y3899915D02*
G01*
X2420365Y3790950D01*
X2420365Y3899915D02*
G01*
X2456688Y3899915D01*
X2472436Y3894836D01*
X2482850Y3884421D01*
X2487929Y3874007D01*
X2493009Y3858260D01*
X2493009Y3832352D01*
X2487929Y3816857D01*
X2482850Y3806444D01*
X2472436Y3796029D01*
X2456688Y3790950D01*
X2420365Y3790950D01*
X3136900Y3887215D02*
G01*
X3136900Y3778250D01*
X3136900Y3887215D02*
G01*
X3183636Y3887215D01*
X3199129Y3882136D01*
X3204463Y3876802D01*
X3209543Y3866387D01*
X3209543Y3850894D01*
X3204463Y3840479D01*
X3199129Y3835400D01*
X3183636Y3830065D01*
X3136900Y3830065D01*
X3243834Y3887215D02*
G01*
X3243834Y3809237D01*
X3249168Y3793744D01*
X3259581Y3783329D01*
X3275075Y3778250D01*
X3285490Y3778250D01*
X3300984Y3783329D01*
X3311397Y3793744D01*
X3316731Y3809237D01*
X3316731Y3887215D01*
X3351022Y3887215D02*
G01*
X3351022Y3778250D01*
X3351022Y3887215D02*
G01*
X3392424Y3778250D01*
X3434079Y3887215D02*
G01*
X3392424Y3778250D01*
X3434079Y3887215D02*
G01*
X3434079Y3778250D01*
X3468370Y3887215D02*
G01*
X3468370Y3778250D01*
X3468370Y3887215D02*
G01*
X3515106Y3887215D01*
X3530600Y3882136D01*
X3535934Y3876802D01*
X3541013Y3866387D01*
X3541013Y3850894D01*
X3535934Y3840479D01*
X3530600Y3835400D01*
X3515106Y3830065D01*
X3468370Y3830065D01*
X3648202Y3871721D02*
G01*
X3637788Y3882136D01*
X3622040Y3887215D01*
X3601465Y3887215D01*
X3585718Y3882136D01*
X3575304Y3871721D01*
X3575304Y3861307D01*
X3580638Y3850894D01*
X3585718Y3845560D01*
X3596131Y3840479D01*
X3627374Y3830065D01*
X3637788Y3824986D01*
X3642868Y3819652D01*
X3648202Y3809237D01*
X3648202Y3793744D01*
X3637788Y3783329D01*
X3622040Y3778250D01*
X3601465Y3778250D01*
X3585718Y3783329D01*
X3575304Y3793744D01*
X3682491Y3887215D02*
G01*
X3682491Y3778250D01*
X3682491Y3887215D02*
G01*
X3729227Y3887215D01*
X3744722Y3882136D01*
X3750056Y3876802D01*
X3755136Y3866387D01*
X3755136Y3850894D01*
X3750056Y3840479D01*
X3744722Y3835400D01*
X3729227Y3830065D01*
X3682491Y3830065D01*
X3789425Y3887215D02*
G01*
X3789425Y3778250D01*
X3789425Y3887215D02*
G01*
X3856990Y3887215D01*
X3789425Y3835400D02*
G01*
X3831081Y3835400D01*
X3789425Y3778250D02*
G01*
X3856990Y3778250D01*
X3891279Y3887215D02*
G01*
X3891279Y3778250D01*
X3891279Y3887215D02*
G01*
X3958843Y3887215D01*
X3891279Y3835400D02*
G01*
X3932936Y3835400D01*
X3891279Y3778250D02*
G01*
X3958843Y3778250D01*
X3993134Y3887215D02*
G01*
X3993134Y3778250D01*
X3993134Y3887215D02*
G01*
X4029456Y3887215D01*
X4044950Y3882136D01*
X4055363Y3871721D01*
X4060697Y3861307D01*
X4065777Y3845560D01*
X4065777Y3819652D01*
X4060697Y3804157D01*
X4055363Y3793744D01*
X4044950Y3783329D01*
X4029456Y3778250D01*
X3993134Y3778250D01*
X5549900Y6020815D02*
G01*
X5549900Y5911850D01*
X5549900Y6020815D02*
G01*
X5617463Y6020815D01*
X5549900Y5969000D02*
G01*
X5591556Y5969000D01*
X5693409Y6020815D02*
G01*
X5651754Y5911850D01*
X5693409Y6020815D02*
G01*
X5734811Y5911850D01*
X5667247Y5948171D02*
G01*
X5719318Y5948171D01*
X5769102Y6020815D02*
G01*
X5769102Y5911850D01*
X5769102Y6020815D02*
G01*
X5842000Y5911850D01*
X5842000Y6020815D02*
G01*
X5842000Y5911850D01*
X5651500Y4496815D02*
G01*
X5651500Y4387850D01*
X5651500Y4496815D02*
G01*
X5698236Y4496815D01*
X5713729Y4491736D01*
X5719063Y4486402D01*
X5724143Y4475987D01*
X5724143Y4460494D01*
X5719063Y4450079D01*
X5713729Y4445000D01*
X5698236Y4439665D01*
X5651500Y4439665D01*
X5758434Y4496815D02*
G01*
X5758434Y4418837D01*
X5763768Y4403344D01*
X5774181Y4392929D01*
X5789675Y4387850D01*
X5800090Y4387850D01*
X5815584Y4392929D01*
X5825997Y4403344D01*
X5831331Y4418837D01*
X5831331Y4496815D01*
X5865622Y4496815D02*
G01*
X5865622Y4387850D01*
X5865622Y4496815D02*
G01*
X5907024Y4387850D01*
X5948679Y4496815D02*
G01*
X5907024Y4387850D01*
X5948679Y4496815D02*
G01*
X5948679Y4387850D01*
X5982970Y4496815D02*
G01*
X5982970Y4387850D01*
X5982970Y4496815D02*
G01*
X6029706Y4496815D01*
X6045200Y4491736D01*
X6050534Y4486402D01*
X6055613Y4475987D01*
X6055613Y4460494D01*
X6050534Y4450079D01*
X6045200Y4445000D01*
X6029706Y4439665D01*
X5982970Y4439665D01*
X876300Y4369815D02*
G01*
X876300Y4260850D01*
X876300Y4369815D02*
G01*
X923036Y4369815D01*
X938529Y4364736D01*
X943863Y4359402D01*
X948944Y4348987D01*
X948944Y4338573D01*
X943863Y4328160D01*
X938529Y4323079D01*
X923036Y4318000D01*
X876300Y4318000D01*
X912621Y4318000D02*
G01*
X948944Y4260850D01*
X1061212Y4343907D02*
G01*
X1056131Y4354321D01*
X1045718Y4364736D01*
X1035304Y4369815D01*
X1014476Y4369815D01*
X1004062Y4364736D01*
X993647Y4354321D01*
X988568Y4343907D01*
X983234Y4328160D01*
X983234Y4302252D01*
X988568Y4286757D01*
X993647Y4276344D01*
X1004062Y4265929D01*
X1014476Y4260850D01*
X1035304Y4260850D01*
X1045718Y4265929D01*
X1056131Y4276344D01*
X1061212Y4286757D01*
X1061212Y4302252D01*
X1035304Y4302252D02*
G01*
X1061212Y4302252D01*
X1095502Y4369815D02*
G01*
X1095502Y4260850D01*
X1095502Y4369815D02*
G01*
X1142237Y4369815D01*
X1157986Y4364736D01*
X1163065Y4359402D01*
X1168400Y4348987D01*
X1168400Y4338573D01*
X1163065Y4328160D01*
X1157986Y4323079D01*
X1142237Y4318000D01*
X1095502Y4318000D02*
G01*
X1142237Y4318000D01*
X1157986Y4312665D01*
X1163065Y4307586D01*
X1168400Y4297171D01*
X1168400Y4281423D01*
X1163065Y4271010D01*
X1157986Y4265929D01*
X1142237Y4260850D01*
X1095502Y4260850D01*
D11*
X3556518Y6280094D02*
G01*
X3556518Y6432097D01*
X2539001Y6432097D01*
X2539001Y6280094D01*
X2158001Y4618984D02*
G01*
X2158001Y4601215D01*
X2158001Y4872984D02*
G01*
X2158001Y4855212D01*
X2158001Y5126984D02*
G01*
X2158001Y5109212D01*
X2158001Y5380984D02*
G01*
X2158001Y5363212D01*
X2158001Y5634984D02*
G01*
X2158001Y5617212D01*
X2158001Y5888982D02*
G01*
X2158001Y5871212D01*
X3937998Y6125210D02*
G01*
X3937998Y6280094D01*
X2158001Y6280094D01*
X2158001Y6125210D01*
X3937998Y5871212D02*
G01*
X3937998Y5888982D01*
X3937998Y5617212D02*
G01*
X3937998Y5634984D01*
X3937998Y5363212D02*
G01*
X3937998Y5380984D01*
X3937998Y5109212D02*
G01*
X3937998Y5126984D01*
X3937998Y4855212D02*
G01*
X3937998Y4872984D01*
X3937998Y4601215D02*
G01*
X3937998Y4618984D01*
X2158001Y4364987D02*
G01*
X2158001Y4210098D01*
X3937998Y4210098D01*
X3937998Y4364987D01*
X4533900Y4216400D02*
G01*
X5041900Y4216400D01*
X4533900Y5232400D02*
G01*
X4660900Y5232400D01*
X4533900Y4216400D02*
G01*
X4533900Y5232400D01*
X5041900Y4216400D02*
G01*
X5041900Y5232400D01*
X4914900Y5232400D02*
G01*
X5041900Y5232400D01*
D10*
X1016000Y6231729D02*
G01*
X889000Y6358729D01*
X889000Y6360144D01*
X1016000Y6222987D02*
G01*
X1151694Y6087292D01*
X878842Y6090909D02*
G01*
X883920Y6090909D01*
X1016000Y6222987D01*
X1148085Y6355067D01*
X1153162Y6355067D01*
X1028700Y3056729D02*
G01*
X901700Y3183729D01*
X901700Y3185144D01*
X1028700Y3047987D02*
G01*
X1164394Y2912292D01*
X891542Y2915909D02*
G01*
X896620Y2915909D01*
X1028700Y3047987D01*
X1160785Y3180067D01*
X1165862Y3180067D01*
X6108700Y6257129D02*
G01*
X5981700Y6384129D01*
X5981700Y6385544D01*
X6108700Y6248387D02*
G01*
X6244394Y6112692D01*
X5971542Y6116309D02*
G01*
X5976620Y6116309D01*
X6108700Y6248387D01*
X6240785Y6380467D01*
X6245862Y6380467D01*
X6083300Y3056729D02*
G01*
X5956300Y3183729D01*
X5956300Y3185144D01*
X6083300Y3047987D02*
G01*
X6218994Y2912292D01*
X5946142Y2915909D02*
G01*
X5951220Y2915909D01*
X6083300Y3047987D01*
X6215385Y3180067D01*
X6220462Y3180067D01*
D11*
X1567179Y2806700D02*
G01*
X1567179Y2895600D01*
X1567179Y2806700D02*
G01*
X2506979Y2806700D01*
X2506979Y2806700D02*
G01*
X2506979Y3746500D01*
X2506979Y3746500D02*
G01*
X1567179Y3746500D01*
X1567179Y3746500D02*
G01*
X1567179Y3657600D01*
X1567179Y3657600D02*
G01*
X1620520Y3657600D01*
X1620520Y3657600D02*
G01*
X1620520Y2895600D01*
X1620520Y2895600D02*
G01*
X1567179Y2895600D01*
X3103879Y2794000D02*
G01*
X3103879Y2882900D01*
X3103879Y2794000D02*
G01*
X4043679Y2794000D01*
X4043679Y2794000D02*
G01*
X4043679Y3733800D01*
X4043679Y3733800D02*
G01*
X3103879Y3733800D01*
X3103879Y3733800D02*
G01*
X3103879Y3644900D01*
X3103879Y3644900D02*
G01*
X3157220Y3644900D01*
X3157220Y3644900D02*
G01*
X3157220Y2882900D01*
X3157220Y2882900D02*
G01*
X3103879Y2882900D01*
X5569407Y5846698D02*
G01*
X5569407Y4846701D01*
X6183833Y5847232D02*
G01*
X6201199Y5886704D01*
X6101199Y5886704D01*
X6120891Y5847232D01*
X6251199Y5846698D02*
G01*
X6251199Y4846701D01*
X6251199Y5846698D02*
G01*
X5491200Y5846698D01*
X6251199Y4846701D02*
G01*
X5491200Y4846701D01*
X5491200Y5846698D02*
G01*
X5491200Y4846701D01*
X6031280Y5846698D02*
G01*
X6031280Y4846701D01*
X5569407Y4322698D02*
G01*
X5569407Y3322701D01*
X6183833Y4323232D02*
G01*
X6201199Y4362704D01*
X6101199Y4362704D01*
X6120891Y4323232D01*
X6251199Y4322698D02*
G01*
X6251199Y3322701D01*
X6251199Y4322698D02*
G01*
X5491200Y4322698D01*
X6251199Y3322701D02*
G01*
X5491200Y3322701D01*
X5491200Y4322698D02*
G01*
X5491200Y3322701D01*
X6031280Y4322698D02*
G01*
X6031280Y3322701D01*
X1094739Y4450079D02*
G01*
X1292860Y4450079D01*
G75*
G01*
X4914900Y5232400D02*
G02*
X4660900Y5232400I-127000J0D01*
D10*
G75*
G01*
X1205995Y6222987D02*
G03*
X1205995Y6222522I-189992J-232D01*
G75*
G01*
X1218695Y3047987D02*
G03*
X1218695Y3047522I-189992J-232D01*
G75*
G01*
X6298695Y6248387D02*
G03*
X6298695Y6247922I-189992J-232D01*
G75*
G01*
X6273295Y3047987D02*
G03*
X6273295Y3047522I-189992J-232D01*
D11*
G75*
G01*
X1093800Y4449000D02*
G02*
X1293800Y4449000I100000J250000D01*
M02*
