G04 Layer: TopLayer*
G04 EasyEDA v6.5.50, 2025-05-02 13:44:32*
G04 9c8b662e0eda49d2b6f133a678b52552,4ea17189a5af4923b0f09c00d4425dfb,10*
G04 Gerber Generator version 0.2*
G04 Scale: 100 percent, Rotated: No, Reflected: No *
G04 Dimensions in millimeters *
G04 leading zeros omitted , absolute positions ,4 integer and 5 decimal *
%FSLAX45Y45*%
%MOMM*%

%AMMACRO1*21,1,$1,$2,0,0,$3*%
%ADD10C,0.2540*%
%ADD11MACRO1,1.9X3X-90.0000*%
%ADD12R,1.6002X1.6002*%
%ADD13C,1.6002*%
%ADD14C,2.0000*%
%ADD15C,1.6000*%
%ADD16R,1.6002X0.8890*%
%ADD17R,0.0197X0.8890*%

%LPD*%
D10*
X3314700Y3263900D02*
G01*
X3289300Y3263900D01*
X2590800Y3962400D01*
X1663700Y3962400D01*
X1447800Y4178300D01*
X1447800Y4254500D01*
X1727200Y4483100D01*
X1803400Y4483100D01*
X2218004Y4483100D01*
X1778000Y3276600D02*
G01*
X1689100Y3276600D01*
X1231900Y3733800D01*
X1231900Y4191000D01*
X1778000Y4737100D01*
X2218004Y4737100D01*
X1193800Y4508500D02*
G01*
X1320800Y4508500D01*
X1612900Y4800600D01*
X1612900Y5448300D01*
X2167204Y5448300D01*
X2218004Y5499100D01*
X1193800Y4762500D02*
G01*
X1346200Y4762500D01*
X1447800Y4864100D01*
X1447800Y5511800D01*
X1765300Y5829300D01*
X2141804Y5829300D01*
X2218004Y5753100D01*
X2217927Y6007100D02*
G01*
X1739900Y6007100D01*
X1193800Y5461000D01*
X1193800Y4889500D01*
X5791200Y5597144D02*
G01*
X5660643Y5597144D01*
X5168900Y5105400D01*
X5168900Y4597400D02*
G01*
X5266943Y4597400D01*
X5791200Y4073144D01*
X4406900Y5105400D02*
G01*
X4267200Y5245100D01*
X3877995Y5245100D01*
X4406900Y4851400D02*
G01*
X4267200Y4991100D01*
X3877995Y4991100D01*
D11*
G01*
X2218001Y6007096D03*
G01*
X2218001Y5753098D03*
G01*
X2218001Y5499098D03*
G01*
X2218001Y5245098D03*
G01*
X2218001Y4991098D03*
G01*
X2218001Y4737098D03*
G01*
X2218001Y4483101D03*
G01*
X3877995Y4483101D03*
G01*
X3877995Y4737098D03*
G01*
X3877995Y4991098D03*
G01*
X3877995Y5245098D03*
G01*
X3877995Y5499098D03*
G01*
X3877995Y5753098D03*
G01*
X3877995Y6007096D03*
D12*
G01*
X4406900Y5105400D03*
D13*
G01*
X4406900Y4851400D03*
G01*
X4406900Y4597400D03*
G01*
X4406900Y4343400D03*
G01*
X5168900Y4343400D03*
G01*
X5168900Y4597400D03*
G01*
X5168900Y4851400D03*
G01*
X5168900Y5105400D03*
D14*
G01*
X1016000Y6223000D03*
G01*
X1028700Y3048000D03*
G01*
X6108700Y6248400D03*
G01*
X6083300Y3048000D03*
D15*
G01*
X1778000Y3276600D03*
G01*
X2032000Y3022600D03*
G01*
X2032000Y3530600D03*
G01*
X3314700Y3263900D03*
G01*
X3568700Y3009900D03*
G01*
X3568700Y3517900D03*
D14*
G01*
X5791200Y5597144D03*
G01*
X5791200Y5096255D03*
G01*
X5791200Y4073144D03*
G01*
X5791200Y3572255D03*
D16*
G01*
X1193800Y4635500D03*
G01*
X1193800Y4508500D03*
G01*
X1193800Y4762500D03*
G01*
X1193800Y4889500D03*
D15*
G01*
X2218004Y6007100D03*
G01*
X2218004Y5753100D03*
G01*
X2218004Y5499100D03*
G01*
X2218004Y4991100D03*
G01*
X2218004Y4737100D03*
G01*
X2218004Y4483100D03*
G01*
X3877995Y6007100D03*
G01*
X3877995Y5753100D03*
G01*
X3877995Y5499100D03*
G01*
X3877995Y5245100D03*
G01*
X3877995Y4991100D03*
G01*
X3877995Y4737100D03*
G01*
X3877995Y4483100D03*
G01*
X2218004Y5245100D03*
M02*
