M48
METRIC,LZ,000.000
;FILE_FORMAT=3:3
;TYPE=PLATED
;Layer: PTH_Through
;EasyEDA v6.5.50, 2025-05-01 09:36:35
;b635e82801d84c3784f216ba710eedd8,4ea17189a5af4923b0f09c00d4425dfb,10
;Gerber Generator version 0.2
;Holesize 1 = 0.712 mm
T01C0.712
;Holesize 2 = 0.762 mm
T02C0.762
;Holesize 3 = 0.900 mm
T03C0.900
;Holesize 4 = 1.199 mm
T04C1.199
;Holesize 5 = 2.000 mm
T05C2.000
%
G05
G90
T01
X037338Y047117
X037338Y049657
X037338Y052197
X037338Y054737
T02
X012573Y038100
X012573Y041402
T03
X044323Y038608
X036703Y038608
X034290Y038608
X026670Y038608
X036957Y063373
X044577Y063373
X016510Y038608
X024130Y038608
X014986Y045802
X017526Y045801
X012446Y045802
X027686Y045802
X025146Y045802
X022606Y045802
X020066Y045802
X012446Y062402
X014986Y062402
X017526Y062402
X020066Y062402
X022606Y062402
X025146Y062402
X027686Y062402
T04
X048260Y054737
X048260Y051054
X048260Y047371
T05
X007620Y063500
X048260Y038100
X048260Y063373
X007620Y038100
M30
