G04 Layer: TopLayer*
G04 EasyEDA v6.5.50, 2025-05-01 09:36:35*
G04 b635e82801d84c3784f216ba710eedd8,4ea17189a5af4923b0f09c00d4425dfb,10*
G04 Gerber Generator version 0.2*
G04 Scale: 100 percent, Rotated: No, Reflected: No *
G04 Dimensions in millimeters *
G04 leading zeros omitted , absolute positions ,4 integer and 5 decimal *
%FSLAX45Y45*%
%MOMM*%

%AMMACRO1*21,1,$1,$2,0,0,$3*%
%ADD10C,0.2540*%
%ADD11MACRO1,1.9X3X0.0000*%
%ADD12C,1.8796*%
%ADD13R,1.2954X1.2954*%
%ADD14C,1.2954*%
%ADD15R,1.3970X1.3970*%
%ADD16C,1.3970*%
%ADD17R,2.0320X2.0320*%
%ADD18C,2.0320*%
%ADD19C,2.0000*%
%ADD20C,0.0118*%

%LPD*%
D10*
X2413000Y3860800D02*
G01*
X2413000Y4165600D01*
X1600200Y4165600D01*
X1498600Y4267200D01*
X3670300Y3860800D02*
G01*
X3238500Y4292600D01*
X1879600Y4292600D01*
X1752600Y4419600D01*
X1752600Y4580128D01*
X3733800Y4965700D02*
G01*
X3390900Y4622800D01*
X3390900Y4140200D01*
X1257300Y4140200D02*
G01*
X1333500Y4216400D01*
X1447800Y4216400D01*
X1498600Y4267200D01*
X1498600Y4580128D01*
X4826000Y5473700D02*
G01*
X4826000Y5727700D01*
X4495800Y6057900D01*
X3810000Y6057900D01*
X3695700Y6172200D01*
X3695700Y6337300D01*
X3695700Y6337300D02*
G01*
X2413000Y5054600D01*
X1676400Y5054600D01*
X1244600Y4622800D01*
X1244600Y4580204D01*
X2667000Y3860800D02*
G01*
X2413000Y3860800D01*
D11*
G01*
X1244603Y4580201D03*
G01*
X1498601Y4580201D03*
G01*
X1752601Y4580201D03*
G01*
X2006601Y4580201D03*
G01*
X2260601Y4580201D03*
G01*
X2514601Y4580201D03*
G01*
X2768598Y4580201D03*
G01*
X2768598Y6240195D03*
G01*
X2514601Y6240195D03*
G01*
X2260601Y6240195D03*
G01*
X2006601Y6240195D03*
G01*
X1752601Y6240195D03*
G01*
X1498601Y6240195D03*
G01*
X1244603Y6240195D03*
D12*
G01*
X4432300Y3860800D03*
G01*
X3670300Y3860800D03*
D13*
G01*
X3733800Y4711700D03*
D14*
G01*
X3733800Y4965700D03*
G01*
X3733800Y5219700D03*
G01*
X3733800Y5473700D03*
D15*
G01*
X1257300Y3810000D03*
D16*
G01*
X1257300Y4140200D03*
D12*
G01*
X3429000Y3860800D03*
G01*
X2667000Y3860800D03*
G01*
X3695700Y6337300D03*
G01*
X4457700Y6337300D03*
G01*
X1651000Y3860800D03*
G01*
X2413000Y3860800D03*
D17*
G01*
X4826012Y5473700D03*
D18*
G01*
X4825987Y5105400D03*
G01*
X4825987Y4737100D03*
D19*
G01*
X762000Y6350000D03*
G01*
X4826000Y3810000D03*
G01*
X4826000Y6337300D03*
G01*
X762000Y3810000D03*
D12*
G01*
X1498600Y4580204D03*
G01*
X1752600Y4580128D03*
G01*
X1244600Y4580204D03*
G01*
X2768600Y4580204D03*
G01*
X2514600Y4580204D03*
G01*
X2260600Y4580204D03*
G01*
X2006600Y4580204D03*
G01*
X1244600Y6240195D03*
G01*
X1498600Y6240195D03*
G01*
X1752600Y6240195D03*
G01*
X2006600Y6240195D03*
G01*
X2260600Y6240195D03*
G01*
X2514600Y6240195D03*
G01*
X2768600Y6240195D03*
M02*
