G04 Layer: TopSolderMaskLayer*
G04 EasyEDA v6.5.50, 2025-05-01 09:36:35*
G04 b635e82801d84c3784f216ba710eedd8,4ea17189a5af4923b0f09c00d4425dfb,10*
G04 Gerber Generator version 0.2*
G04 Scale: 100 percent, Rotated: No, Reflected: No *
G04 Dimensions in millimeters *
G04 leading zeros omitted , absolute positions ,4 integer and 5 decimal *
%FSLAX45Y45*%
%MOMM*%

%AMMACRO1*4,1,8,-0.971,-1.5508,-1.0008,-1.5208,-1.0008,1.5211,-0.971,1.5508,0.9708,1.5508,1.0008,1.5211,1.0008,-1.5208,0.9708,-1.5508,-0.971,-1.5508,0*%
%AMMACRO2*4,1,8,-0.6688,-0.6985,-0.6985,-0.6685,-0.6985,0.6688,-0.6688,0.6985,0.6685,0.6985,0.6985,0.6688,0.6985,-0.6685,0.6685,-0.6985,-0.6688,-0.6985,0*%
%AMMACRO3*4,1,8,-0.7196,-0.7493,-0.7493,-0.7193,-0.7493,0.7196,-0.7196,0.7493,0.7193,0.7493,0.7493,0.7196,0.7493,-0.7193,0.7193,-0.7493,-0.7196,-0.7493,0*%
%AMMACRO4*4,1,8,-1.0371,-1.0668,-1.0668,-1.0368,-1.0668,1.0371,-1.0371,1.0668,1.0368,1.0668,1.0668,1.0371,1.0668,-1.0368,1.0368,-1.0668,-1.0371,-1.0668,0*%
%ADD10C,1.9812*%
%ADD11MACRO1*%
%ADD12MACRO2*%
%ADD13C,1.3970*%
%ADD14MACRO3*%
%ADD15C,1.4986*%
%ADD16MACRO4*%
%ADD17C,2.1336*%
%ADD18C,2.1016*%
%ADD19C,0.0102*%

%LPD*%
D10*
G01*
X4432300Y3860800D03*
G01*
X3670300Y3860800D03*
D11*
G01*
X1244600Y4580191D03*
G01*
X1498600Y4580191D03*
G01*
X1752600Y4580191D03*
G01*
X2006599Y4580191D03*
G01*
X2260600Y4580191D03*
G01*
X2514600Y4580191D03*
G01*
X2768600Y4580191D03*
G01*
X2768600Y6240183D03*
G01*
X2514600Y6240183D03*
G01*
X2260600Y6240183D03*
G01*
X2006599Y6240183D03*
G01*
X1752600Y6240183D03*
G01*
X1498600Y6240183D03*
G01*
X1244600Y6240183D03*
D12*
G01*
X3733800Y4711700D03*
D13*
G01*
X3733800Y4965700D03*
G01*
X3733800Y5219700D03*
G01*
X3733800Y5473700D03*
D14*
G01*
X1257300Y3810000D03*
D15*
G01*
X1257300Y4140200D03*
D10*
G01*
X3429000Y3860800D03*
G01*
X2667000Y3860800D03*
G01*
X3695700Y6337300D03*
G01*
X4457700Y6337300D03*
G01*
X1651000Y3860800D03*
G01*
X2413000Y3860800D03*
D16*
G01*
X4826025Y5473700D03*
D17*
G01*
X4825987Y5105400D03*
G01*
X4825987Y4737100D03*
D18*
G01*
X762000Y6350000D03*
G01*
X4826000Y3810000D03*
G01*
X4826000Y6337300D03*
G01*
X762000Y3810000D03*
D10*
G01*
X1498600Y4580204D03*
G01*
X1752600Y4580128D03*
G01*
X1244600Y4580204D03*
G01*
X2768600Y4580204D03*
G01*
X2514600Y4580204D03*
G01*
X2260600Y4580204D03*
G01*
X2006600Y4580204D03*
G01*
X1244600Y6240195D03*
G01*
X1498600Y6240195D03*
G01*
X1752600Y6240195D03*
G01*
X2006600Y6240195D03*
G01*
X2260600Y6240195D03*
G01*
X2514600Y6240195D03*
G01*
X2768600Y6240195D03*
M02*
