G04 Layer: BottomLayer*
G04 EasyEDA v6.5.50, 2025-05-01 09:36:35*
G04 b635e82801d84c3784f216ba710eedd8,4ea17189a5af4923b0f09c00d4425dfb,10*
G04 Gerber Generator version 0.2*
G04 Scale: 100 percent, Rotated: No, Reflected: No *
G04 Dimensions in millimeters *
G04 leading zeros omitted , absolute positions ,4 integer and 5 decimal *
%FSLAX45Y45*%
%MOMM*%

%ADD10C,0.2540*%
%ADD11C,1.8796*%
%ADD12R,1.2954X1.2954*%
%ADD13C,1.2954*%
%ADD14R,1.3970X1.3970*%
%ADD15C,1.3970*%
%ADD16R,2.0320X2.0320*%
%ADD17C,2.0320*%
%ADD18C,2.0000*%
%ADD19C,0.0103*%

%LPD*%
G36*
X772363Y3657955D02*
G01*
X768400Y3658615D01*
X764997Y3660749D01*
X762711Y3664051D01*
X761898Y3668014D01*
X761796Y3674414D01*
X762508Y3678224D01*
X764540Y3681476D01*
X767638Y3683711D01*
X771347Y3684676D01*
X777189Y3685032D01*
X792124Y3687775D01*
X806653Y3692296D01*
X820521Y3698544D01*
X833526Y3706418D01*
X845464Y3715765D01*
X856234Y3726535D01*
X865581Y3738473D01*
X873455Y3751478D01*
X879703Y3765346D01*
X884224Y3779875D01*
X886968Y3794810D01*
X887882Y3810000D01*
X886968Y3825189D01*
X884224Y3840124D01*
X879703Y3854653D01*
X873455Y3868521D01*
X865581Y3881526D01*
X856234Y3893464D01*
X845464Y3904234D01*
X833526Y3913581D01*
X820521Y3921455D01*
X806653Y3927703D01*
X792124Y3932224D01*
X777189Y3934968D01*
X768400Y3935526D01*
X764692Y3936441D01*
X761644Y3938625D01*
X759561Y3941826D01*
X758850Y3945534D01*
X749300Y4813350D01*
X749300Y6214110D01*
X750112Y6218123D01*
X752500Y6221476D01*
X756005Y6223660D01*
X760069Y6224219D01*
X762000Y6224117D01*
X777189Y6225032D01*
X792124Y6227775D01*
X806653Y6232296D01*
X820521Y6238544D01*
X833526Y6246418D01*
X845464Y6255766D01*
X856234Y6266535D01*
X865581Y6278473D01*
X873455Y6291478D01*
X879703Y6305346D01*
X884224Y6319875D01*
X886968Y6334810D01*
X887882Y6350000D01*
X886968Y6365189D01*
X884224Y6380124D01*
X879703Y6394653D01*
X873455Y6408521D01*
X865581Y6421526D01*
X856234Y6433464D01*
X845464Y6444234D01*
X843026Y6446164D01*
X840333Y6449314D01*
X839165Y6453327D01*
X839724Y6457442D01*
X841857Y6461048D01*
X845210Y6463436D01*
X849325Y6464300D01*
X3639159Y6464300D01*
X3643528Y6463284D01*
X3647033Y6460490D01*
X3649014Y6456476D01*
X3649065Y6451955D01*
X3647135Y6447891D01*
X3643680Y6445046D01*
X3635756Y6441084D01*
X3623462Y6432956D01*
X3612235Y6423355D01*
X3602329Y6412433D01*
X3593795Y6400393D01*
X3586784Y6387388D01*
X3581450Y6373622D01*
X3577894Y6359347D01*
X3576065Y6344666D01*
X3576065Y6329934D01*
X3577894Y6315252D01*
X3581450Y6300978D01*
X3586784Y6287211D01*
X3593795Y6274206D01*
X3602329Y6262166D01*
X3612235Y6251244D01*
X3623462Y6241643D01*
X3635756Y6233515D01*
X3648964Y6226911D01*
X3662883Y6221984D01*
X3677310Y6218834D01*
X3691991Y6217462D01*
X3706774Y6217920D01*
X3721354Y6220206D01*
X3735527Y6224270D01*
X3749141Y6230010D01*
X3761892Y6237376D01*
X3773678Y6246266D01*
X3784295Y6256528D01*
X3793540Y6268059D01*
X3801313Y6280607D01*
X3807460Y6294018D01*
X3811930Y6308039D01*
X3814673Y6322568D01*
X3815587Y6337300D01*
X3814673Y6352032D01*
X3811930Y6366560D01*
X3807460Y6380581D01*
X3801313Y6393992D01*
X3793540Y6406540D01*
X3784295Y6418072D01*
X3773678Y6428333D01*
X3761892Y6437223D01*
X3748684Y6444792D01*
X3745433Y6447028D01*
X3743248Y6450279D01*
X3742486Y6454190D01*
X3743299Y6458051D01*
X3745484Y6461353D01*
X3748786Y6463538D01*
X3752646Y6464300D01*
X4401159Y6464300D01*
X4405528Y6463284D01*
X4407712Y6461556D01*
X4410608Y6463538D01*
X4414520Y6464300D01*
X4500880Y6464300D01*
X4504791Y6463538D01*
X4507788Y6461506D01*
X4510786Y6463538D01*
X4514646Y6464300D01*
X4756759Y6464300D01*
X4761026Y6463385D01*
X4764481Y6460744D01*
X4766513Y6456883D01*
X4766767Y6452514D01*
X4765141Y6448450D01*
X4761992Y6445453D01*
X4754473Y6440881D01*
X4742535Y6431534D01*
X4731766Y6420764D01*
X4722418Y6408826D01*
X4714544Y6395821D01*
X4708296Y6381953D01*
X4703775Y6367424D01*
X4701032Y6352489D01*
X4700117Y6337300D01*
X4701032Y6322110D01*
X4703775Y6307175D01*
X4708296Y6292646D01*
X4714544Y6278778D01*
X4722418Y6265773D01*
X4731766Y6253835D01*
X4742535Y6243066D01*
X4754473Y6233718D01*
X4767478Y6225844D01*
X4781346Y6219596D01*
X4795875Y6215075D01*
X4810810Y6212332D01*
X4826000Y6211417D01*
X4841189Y6212332D01*
X4856124Y6215075D01*
X4870653Y6219596D01*
X4884521Y6225844D01*
X4897526Y6233718D01*
X4909464Y6243066D01*
X4920234Y6253835D01*
X4929581Y6265773D01*
X4937455Y6278778D01*
X4943703Y6292646D01*
X4948224Y6307175D01*
X4950968Y6322110D01*
X4951882Y6337300D01*
X4950968Y6352489D01*
X4948224Y6367424D01*
X4943703Y6381953D01*
X4937455Y6395821D01*
X4929581Y6408826D01*
X4920234Y6420764D01*
X4909464Y6431534D01*
X4897526Y6440881D01*
X4890008Y6445453D01*
X4886858Y6448450D01*
X4885232Y6452514D01*
X4885486Y6456883D01*
X4887518Y6460744D01*
X4890973Y6463385D01*
X4895240Y6464300D01*
X5019040Y6464300D01*
X5022951Y6463538D01*
X5026202Y6461302D01*
X5028438Y6458051D01*
X5029200Y6454140D01*
X5029200Y3699916D01*
X5028438Y3696004D01*
X5026202Y3692702D01*
X5019497Y3685997D01*
X5016195Y3683762D01*
X5012283Y3683000D01*
X4895240Y3683000D01*
X4890973Y3683914D01*
X4887518Y3686556D01*
X4885486Y3690416D01*
X4885232Y3694785D01*
X4886858Y3698849D01*
X4890008Y3701846D01*
X4897526Y3706418D01*
X4909464Y3715765D01*
X4920234Y3726535D01*
X4929581Y3738473D01*
X4937455Y3751478D01*
X4943703Y3765346D01*
X4948224Y3779875D01*
X4950968Y3794810D01*
X4951882Y3810000D01*
X4950968Y3825189D01*
X4948224Y3840124D01*
X4943703Y3854653D01*
X4937455Y3868521D01*
X4929581Y3881526D01*
X4920234Y3893464D01*
X4909464Y3904234D01*
X4897526Y3913581D01*
X4884521Y3921455D01*
X4870653Y3927703D01*
X4856124Y3932224D01*
X4841189Y3934968D01*
X4826000Y3935882D01*
X4810810Y3934968D01*
X4795875Y3932224D01*
X4781346Y3927703D01*
X4767478Y3921455D01*
X4754473Y3913581D01*
X4742535Y3904234D01*
X4731766Y3893464D01*
X4722418Y3881526D01*
X4714544Y3868521D01*
X4708296Y3854653D01*
X4703775Y3840124D01*
X4701032Y3825189D01*
X4700117Y3810000D01*
X4701032Y3794810D01*
X4703775Y3779875D01*
X4708296Y3765346D01*
X4714544Y3751478D01*
X4722418Y3738473D01*
X4731766Y3726535D01*
X4742535Y3715765D01*
X4754473Y3706418D01*
X4761992Y3701846D01*
X4765141Y3698849D01*
X4766767Y3694785D01*
X4766513Y3690416D01*
X4764481Y3686556D01*
X4761026Y3683914D01*
X4756759Y3683000D01*
X1523898Y3683000D01*
G37*

%LPC*%
G36*
X1188008Y3714242D02*
G01*
X1216050Y3714242D01*
X1216050Y3768699D01*
X1161542Y3768699D01*
X1161542Y3740708D01*
X1162253Y3734409D01*
X1164183Y3728923D01*
X1167231Y3724046D01*
X1171346Y3719931D01*
X1176223Y3716883D01*
X1181709Y3714953D01*
G37*
G36*
X1298600Y3714242D02*
G01*
X1326591Y3714242D01*
X1332890Y3714953D01*
X1338376Y3716883D01*
X1343253Y3719931D01*
X1347368Y3724046D01*
X1350416Y3728923D01*
X1352346Y3734409D01*
X1353058Y3740708D01*
X1353058Y3768699D01*
X1298600Y3768699D01*
G37*
G36*
X3674008Y3740962D02*
G01*
X3688689Y3742334D01*
X3703116Y3745484D01*
X3717036Y3750411D01*
X3730244Y3757015D01*
X3742537Y3765143D01*
X3753764Y3774744D01*
X3763670Y3785666D01*
X3772204Y3797706D01*
X3779215Y3810711D01*
X3784549Y3824478D01*
X3788105Y3838752D01*
X3789934Y3853434D01*
X3789934Y3868165D01*
X3788105Y3882847D01*
X3784549Y3897122D01*
X3779215Y3910888D01*
X3772204Y3923893D01*
X3763670Y3935933D01*
X3753764Y3946855D01*
X3742537Y3956456D01*
X3730244Y3964584D01*
X3717036Y3971188D01*
X3703116Y3976115D01*
X3688689Y3979265D01*
X3674008Y3980586D01*
X3659225Y3980179D01*
X3644646Y3977894D01*
X3630472Y3973829D01*
X3616858Y3968089D01*
X3604107Y3960723D01*
X3592322Y3951833D01*
X3581704Y3941572D01*
X3572459Y3930040D01*
X3564686Y3917492D01*
X3558794Y3904691D01*
X3557778Y3903319D01*
X3557524Y3900881D01*
X3554069Y3890060D01*
X3551326Y3875532D01*
X3550412Y3860800D01*
X3551326Y3846068D01*
X3554069Y3831539D01*
X3557524Y3820718D01*
X3557778Y3818280D01*
X3558794Y3816908D01*
X3564686Y3804107D01*
X3572459Y3791559D01*
X3581704Y3780028D01*
X3592322Y3769766D01*
X3604107Y3760876D01*
X3616858Y3753510D01*
X3630472Y3747770D01*
X3644646Y3743706D01*
X3659225Y3741420D01*
G37*
G36*
X2409291Y3740962D02*
G01*
X2424074Y3741420D01*
X2438654Y3743706D01*
X2452827Y3747770D01*
X2466441Y3753510D01*
X2479192Y3760876D01*
X2490978Y3769766D01*
X2501595Y3780028D01*
X2510840Y3791559D01*
X2518613Y3804107D01*
X2524760Y3817518D01*
X2529230Y3831539D01*
X2529992Y3835654D01*
X2531516Y3839362D01*
X2534310Y3842207D01*
X2538018Y3843731D01*
X2541981Y3843731D01*
X2545689Y3842207D01*
X2548483Y3839362D01*
X2550007Y3835654D01*
X2550769Y3831539D01*
X2555240Y3817518D01*
X2561386Y3804107D01*
X2569159Y3791559D01*
X2578404Y3780028D01*
X2589022Y3769766D01*
X2600807Y3760876D01*
X2613558Y3753510D01*
X2627172Y3747770D01*
X2641346Y3743706D01*
X2655925Y3741420D01*
X2670708Y3740962D01*
X2685389Y3742334D01*
X2699816Y3745484D01*
X2713736Y3750411D01*
X2726944Y3757015D01*
X2739237Y3765143D01*
X2750464Y3774744D01*
X2760370Y3785666D01*
X2768904Y3797706D01*
X2775915Y3810711D01*
X2781249Y3824478D01*
X2784805Y3838752D01*
X2786634Y3853434D01*
X2786634Y3868165D01*
X2784805Y3882847D01*
X2781249Y3897122D01*
X2775915Y3910888D01*
X2768904Y3923893D01*
X2760370Y3935933D01*
X2750464Y3946855D01*
X2739237Y3956456D01*
X2726944Y3964584D01*
X2713736Y3971188D01*
X2699816Y3976115D01*
X2685389Y3979265D01*
X2670708Y3980586D01*
X2655925Y3980179D01*
X2641346Y3977894D01*
X2627172Y3973829D01*
X2613558Y3968089D01*
X2600807Y3960723D01*
X2589022Y3951833D01*
X2578404Y3941572D01*
X2569159Y3930040D01*
X2561386Y3917492D01*
X2555240Y3904081D01*
X2550769Y3890060D01*
X2550007Y3885946D01*
X2548483Y3882237D01*
X2545689Y3879392D01*
X2541981Y3877868D01*
X2538018Y3877868D01*
X2534310Y3879392D01*
X2531516Y3882237D01*
X2529992Y3885946D01*
X2529230Y3890060D01*
X2524760Y3904081D01*
X2518613Y3917492D01*
X2510840Y3930040D01*
X2501595Y3941572D01*
X2490978Y3951833D01*
X2479192Y3960723D01*
X2466441Y3968089D01*
X2452827Y3973829D01*
X2438654Y3977894D01*
X2424074Y3980179D01*
X2409291Y3980586D01*
X2394610Y3979265D01*
X2380183Y3976115D01*
X2366264Y3971188D01*
X2353056Y3964584D01*
X2340762Y3956456D01*
X2329535Y3946855D01*
X2319629Y3935933D01*
X2311095Y3923893D01*
X2304084Y3910888D01*
X2298750Y3897122D01*
X2295194Y3882847D01*
X2293366Y3868165D01*
X2293366Y3853434D01*
X2295194Y3838752D01*
X2298750Y3824478D01*
X2304084Y3810711D01*
X2311095Y3797706D01*
X2319629Y3785666D01*
X2329535Y3774744D01*
X2340762Y3765143D01*
X2353056Y3757015D01*
X2366264Y3750411D01*
X2380183Y3745484D01*
X2394610Y3742334D01*
G37*
G36*
X1647291Y3740962D02*
G01*
X1662074Y3741420D01*
X1676654Y3743706D01*
X1690827Y3747770D01*
X1704441Y3753510D01*
X1717192Y3760876D01*
X1728978Y3769766D01*
X1739595Y3780028D01*
X1748840Y3791559D01*
X1756613Y3804107D01*
X1762760Y3817518D01*
X1767230Y3831539D01*
X1769973Y3846068D01*
X1770888Y3860800D01*
X1769973Y3875532D01*
X1767230Y3890060D01*
X1762760Y3904081D01*
X1756613Y3917492D01*
X1748840Y3930040D01*
X1739595Y3941572D01*
X1728978Y3951833D01*
X1717192Y3960723D01*
X1704441Y3968089D01*
X1695805Y3971747D01*
X1692554Y3973982D01*
X1690370Y3977233D01*
X1689607Y3981094D01*
X1689607Y3991813D01*
X1690217Y3995318D01*
X1764385Y4196537D01*
X1766519Y4200042D01*
X1769872Y4202379D01*
X1773885Y4203192D01*
X3110992Y4203192D01*
X3119018Y4204004D01*
X3126232Y4206189D01*
X3132937Y4209745D01*
X3139135Y4214876D01*
X3214624Y4290364D01*
X3219754Y4296562D01*
X3223310Y4303268D01*
X3225495Y4310481D01*
X3226308Y4318508D01*
X3226308Y4539081D01*
X3227070Y4542993D01*
X3229305Y4546295D01*
X3353104Y4670094D01*
X3356406Y4672330D01*
X3360318Y4673092D01*
X3632962Y4673092D01*
X3636873Y4672330D01*
X3640124Y4670094D01*
X3642360Y4666843D01*
X3643122Y4662932D01*
X3643122Y4647488D01*
X3643833Y4641189D01*
X3645763Y4635703D01*
X3648811Y4630826D01*
X3652926Y4626711D01*
X3657803Y4623663D01*
X3663289Y4621733D01*
X3669588Y4621022D01*
X3798011Y4621022D01*
X3804310Y4621733D01*
X3809796Y4623663D01*
X3814673Y4626711D01*
X3818788Y4630826D01*
X3821836Y4635703D01*
X3823766Y4641189D01*
X3824478Y4647488D01*
X3824478Y4688332D01*
X3825240Y4692243D01*
X3827475Y4695494D01*
X3830726Y4697730D01*
X3834637Y4698492D01*
X4697272Y4698492D01*
X4701032Y4697780D01*
X4704283Y4695647D01*
X4706518Y4692497D01*
X4713122Y4677867D01*
X4721047Y4664659D01*
X4730546Y4652568D01*
X4741468Y4641697D01*
X4753559Y4632198D01*
X4766716Y4624222D01*
X4780788Y4617872D01*
X4795469Y4613300D01*
X4810607Y4610557D01*
X4826000Y4609592D01*
X4841341Y4610557D01*
X4856480Y4613300D01*
X4871212Y4617872D01*
X4885232Y4624222D01*
X4898390Y4632198D01*
X4910531Y4641697D01*
X4921402Y4652568D01*
X4930902Y4664659D01*
X4938877Y4677867D01*
X4945176Y4691888D01*
X4949748Y4706569D01*
X4952542Y4721707D01*
X4953457Y4737100D01*
X4952542Y4752492D01*
X4949748Y4767630D01*
X4945176Y4782312D01*
X4938877Y4796332D01*
X4930902Y4809540D01*
X4921402Y4821631D01*
X4910531Y4832502D01*
X4898390Y4842002D01*
X4885232Y4849977D01*
X4871212Y4856327D01*
X4856480Y4860899D01*
X4841341Y4863642D01*
X4826000Y4864608D01*
X4810607Y4863642D01*
X4795469Y4860899D01*
X4780788Y4856327D01*
X4766716Y4849977D01*
X4753559Y4842002D01*
X4741468Y4832502D01*
X4730546Y4821631D01*
X4721047Y4809540D01*
X4713122Y4796332D01*
X4706518Y4781702D01*
X4704283Y4778552D01*
X4701032Y4776419D01*
X4697272Y4775708D01*
X3833266Y4775708D01*
X3829202Y4776571D01*
X3825798Y4778959D01*
X3823665Y4782515D01*
X3821836Y4787696D01*
X3818788Y4792573D01*
X3814673Y4796688D01*
X3809796Y4799736D01*
X3804310Y4801666D01*
X3798011Y4802378D01*
X3669588Y4802378D01*
X3663289Y4801666D01*
X3657803Y4799736D01*
X3652926Y4796688D01*
X3648811Y4792573D01*
X3645763Y4787696D01*
X3643833Y4782210D01*
X3643122Y4775911D01*
X3643122Y4760468D01*
X3642360Y4756556D01*
X3640124Y4753305D01*
X3636873Y4751070D01*
X3632962Y4750308D01*
X2966618Y4750308D01*
X2962706Y4751070D01*
X2959404Y4753305D01*
X1794205Y5918504D01*
X1791970Y5921806D01*
X1791207Y5925718D01*
X1791207Y6119876D01*
X1791970Y6123736D01*
X1794154Y6127038D01*
X1797405Y6129223D01*
X1806041Y6132880D01*
X1818792Y6140297D01*
X1830578Y6149187D01*
X1841195Y6159449D01*
X1850440Y6170930D01*
X1858213Y6183477D01*
X1864360Y6196888D01*
X1868830Y6210960D01*
X1869592Y6214922D01*
X1871014Y6218580D01*
X1873757Y6221374D01*
X1877314Y6222949D01*
X1881225Y6223101D01*
X1884883Y6221730D01*
X1887778Y6219088D01*
X1889455Y6215532D01*
X1892350Y6203848D01*
X1897684Y6190081D01*
X1904695Y6177076D01*
X1913229Y6165037D01*
X1923135Y6154115D01*
X1934362Y6144514D01*
X1946656Y6136386D01*
X1959864Y6129832D01*
X1973783Y6124905D01*
X1988210Y6121755D01*
X2002891Y6120384D01*
X2017674Y6120841D01*
X2032254Y6123127D01*
X2046427Y6127140D01*
X2060041Y6132880D01*
X2072792Y6140297D01*
X2084578Y6149187D01*
X2095195Y6159449D01*
X2104440Y6170930D01*
X2112213Y6183477D01*
X2118360Y6196888D01*
X2122830Y6210960D01*
X2123592Y6214922D01*
X2125014Y6218580D01*
X2127758Y6221374D01*
X2131314Y6222949D01*
X2135225Y6223101D01*
X2138883Y6221730D01*
X2141778Y6219088D01*
X2143455Y6215532D01*
X2146350Y6203848D01*
X2151684Y6190081D01*
X2158695Y6177076D01*
X2167229Y6165037D01*
X2177135Y6154115D01*
X2188362Y6144514D01*
X2200656Y6136386D01*
X2213864Y6129832D01*
X2227783Y6124905D01*
X2242210Y6121755D01*
X2256891Y6120384D01*
X2271674Y6120841D01*
X2286254Y6123127D01*
X2300427Y6127140D01*
X2314041Y6132880D01*
X2326792Y6140297D01*
X2338578Y6149187D01*
X2349195Y6159449D01*
X2358440Y6170930D01*
X2366213Y6183477D01*
X2372360Y6196888D01*
X2376830Y6210960D01*
X2377592Y6214922D01*
X2379014Y6218580D01*
X2381758Y6221374D01*
X2385314Y6222949D01*
X2389225Y6223101D01*
X2392883Y6221730D01*
X2395778Y6219088D01*
X2397455Y6215532D01*
X2400350Y6203848D01*
X2405684Y6190081D01*
X2412695Y6177076D01*
X2421229Y6165037D01*
X2431135Y6154115D01*
X2442362Y6144514D01*
X2454656Y6136386D01*
X2467864Y6129832D01*
X2481783Y6124905D01*
X2496210Y6121755D01*
X2510891Y6120384D01*
X2525674Y6120841D01*
X2540254Y6123127D01*
X2554427Y6127140D01*
X2568041Y6132880D01*
X2580792Y6140297D01*
X2592578Y6149187D01*
X2603195Y6159449D01*
X2612440Y6170930D01*
X2620213Y6183477D01*
X2626360Y6196888D01*
X2630830Y6210960D01*
X2631592Y6214922D01*
X2633014Y6218580D01*
X2635758Y6221374D01*
X2639314Y6222949D01*
X2643225Y6223101D01*
X2646883Y6221730D01*
X2649778Y6219088D01*
X2651455Y6215532D01*
X2654350Y6203848D01*
X2659684Y6190081D01*
X2666695Y6177076D01*
X2675229Y6165037D01*
X2685135Y6154115D01*
X2696362Y6144514D01*
X2708656Y6136386D01*
X2721864Y6129832D01*
X2735783Y6124905D01*
X2750210Y6121755D01*
X2764891Y6120384D01*
X2779674Y6120841D01*
X2794254Y6123127D01*
X2808427Y6127140D01*
X2822041Y6132880D01*
X2834792Y6140297D01*
X2846578Y6149187D01*
X2857195Y6159449D01*
X2866440Y6170930D01*
X2874213Y6183477D01*
X2880360Y6196888D01*
X2884830Y6210960D01*
X2887573Y6225489D01*
X2888488Y6240170D01*
X2887573Y6254902D01*
X2884830Y6269431D01*
X2880360Y6283502D01*
X2874213Y6296914D01*
X2866440Y6309461D01*
X2857195Y6320942D01*
X2846578Y6331204D01*
X2834792Y6340094D01*
X2822041Y6347510D01*
X2808427Y6353251D01*
X2794254Y6357264D01*
X2779674Y6359550D01*
X2764891Y6360007D01*
X2750210Y6358636D01*
X2735783Y6355486D01*
X2721864Y6350558D01*
X2708656Y6344005D01*
X2696362Y6335877D01*
X2685135Y6326225D01*
X2675229Y6315354D01*
X2666695Y6303314D01*
X2659684Y6290310D01*
X2654350Y6276543D01*
X2651455Y6264859D01*
X2649778Y6261303D01*
X2646883Y6258661D01*
X2643225Y6257290D01*
X2639314Y6257442D01*
X2635758Y6259017D01*
X2633014Y6261811D01*
X2631592Y6265468D01*
X2630830Y6269431D01*
X2626360Y6283502D01*
X2620213Y6296914D01*
X2612440Y6309461D01*
X2603195Y6320942D01*
X2592578Y6331204D01*
X2580792Y6340094D01*
X2568041Y6347510D01*
X2554427Y6353251D01*
X2540254Y6357264D01*
X2525674Y6359550D01*
X2510891Y6360007D01*
X2496210Y6358636D01*
X2481783Y6355486D01*
X2467864Y6350558D01*
X2454656Y6344005D01*
X2442362Y6335877D01*
X2431135Y6326225D01*
X2421229Y6315354D01*
X2412695Y6303314D01*
X2405684Y6290310D01*
X2400350Y6276543D01*
X2397455Y6264859D01*
X2395778Y6261303D01*
X2392883Y6258661D01*
X2389225Y6257290D01*
X2385314Y6257442D01*
X2381758Y6259017D01*
X2379014Y6261811D01*
X2377592Y6265468D01*
X2376830Y6269431D01*
X2372360Y6283502D01*
X2366213Y6296914D01*
X2358440Y6309461D01*
X2349195Y6320942D01*
X2338578Y6331204D01*
X2326792Y6340094D01*
X2314041Y6347510D01*
X2300427Y6353251D01*
X2286254Y6357264D01*
X2271674Y6359550D01*
X2256891Y6360007D01*
X2242210Y6358636D01*
X2227783Y6355486D01*
X2213864Y6350558D01*
X2200656Y6344005D01*
X2188362Y6335877D01*
X2177135Y6326225D01*
X2167229Y6315354D01*
X2158695Y6303314D01*
X2151684Y6290310D01*
X2146350Y6276543D01*
X2143455Y6264859D01*
X2141778Y6261303D01*
X2138883Y6258661D01*
X2135225Y6257290D01*
X2131314Y6257442D01*
X2127758Y6259017D01*
X2125014Y6261811D01*
X2123592Y6265468D01*
X2122830Y6269431D01*
X2118360Y6283502D01*
X2112213Y6296914D01*
X2104440Y6309461D01*
X2095195Y6320942D01*
X2084578Y6331204D01*
X2072792Y6340094D01*
X2060041Y6347510D01*
X2046427Y6353251D01*
X2032254Y6357264D01*
X2017674Y6359550D01*
X2002891Y6360007D01*
X1988210Y6358636D01*
X1973783Y6355486D01*
X1959864Y6350558D01*
X1946656Y6344005D01*
X1934362Y6335877D01*
X1923135Y6326225D01*
X1913229Y6315354D01*
X1904695Y6303314D01*
X1897684Y6290310D01*
X1892350Y6276543D01*
X1889455Y6264859D01*
X1887778Y6261303D01*
X1884883Y6258661D01*
X1881225Y6257290D01*
X1877314Y6257442D01*
X1873757Y6259017D01*
X1871014Y6261811D01*
X1869592Y6265468D01*
X1868830Y6269431D01*
X1864360Y6283502D01*
X1858213Y6296914D01*
X1850440Y6309461D01*
X1841195Y6320942D01*
X1830578Y6331204D01*
X1818792Y6340094D01*
X1806041Y6347510D01*
X1792427Y6353251D01*
X1778254Y6357264D01*
X1763674Y6359550D01*
X1748891Y6360007D01*
X1734210Y6358636D01*
X1719783Y6355486D01*
X1705864Y6350558D01*
X1692656Y6344005D01*
X1680362Y6335877D01*
X1669135Y6326225D01*
X1659229Y6315354D01*
X1650695Y6303314D01*
X1643684Y6290310D01*
X1638350Y6276543D01*
X1634794Y6262217D01*
X1632966Y6247587D01*
X1632966Y6232804D01*
X1634794Y6218174D01*
X1638350Y6203848D01*
X1643684Y6190081D01*
X1650695Y6177076D01*
X1659229Y6165037D01*
X1669135Y6154115D01*
X1680362Y6144514D01*
X1692656Y6136386D01*
X1705864Y6129832D01*
X1710740Y6127191D01*
X1713128Y6123787D01*
X1713992Y6119774D01*
X1713992Y5906008D01*
X1714804Y5897981D01*
X1716989Y5890768D01*
X1720545Y5884062D01*
X1725675Y5877864D01*
X2918764Y4684776D01*
X2924962Y4679645D01*
X2931668Y4676089D01*
X2938881Y4673904D01*
X2946908Y4673092D01*
X3222345Y4673092D01*
X3226257Y4672330D01*
X3229559Y4670094D01*
X3231743Y4666843D01*
X3232505Y4662932D01*
X3231743Y4659020D01*
X3229559Y4655769D01*
X3160776Y4586935D01*
X3155645Y4580737D01*
X3152089Y4574032D01*
X3149904Y4566818D01*
X3149092Y4558792D01*
X3149092Y4338218D01*
X3148330Y4334306D01*
X3146094Y4331004D01*
X3098495Y4283405D01*
X3095193Y4281170D01*
X3091281Y4280408D01*
X1740001Y4280408D01*
X1730857Y4279290D01*
X1723745Y4276801D01*
X1717243Y4272991D01*
X1711553Y4267962D01*
X1707032Y4261916D01*
X1703476Y4254703D01*
X1614932Y4014317D01*
X1612900Y4006392D01*
X1612392Y4000093D01*
X1612392Y3981246D01*
X1611528Y3977182D01*
X1609140Y3973779D01*
X1591056Y3964584D01*
X1578762Y3956456D01*
X1567535Y3946855D01*
X1557629Y3935933D01*
X1549095Y3923893D01*
X1542084Y3910888D01*
X1536750Y3897122D01*
X1533194Y3882847D01*
X1531366Y3868165D01*
X1531366Y3853434D01*
X1533194Y3838752D01*
X1536750Y3824478D01*
X1542084Y3810711D01*
X1549095Y3797706D01*
X1557629Y3785666D01*
X1567535Y3774744D01*
X1578762Y3765143D01*
X1591056Y3757015D01*
X1604264Y3750411D01*
X1618183Y3745484D01*
X1632610Y3742334D01*
G37*
G36*
X3375660Y3753459D02*
G01*
X3375660Y3807460D01*
X3321862Y3807460D01*
X3323386Y3804107D01*
X3331159Y3791559D01*
X3340404Y3780028D01*
X3351022Y3769766D01*
X3362807Y3760876D01*
G37*
G36*
X4378960Y3753459D02*
G01*
X4378960Y3807460D01*
X4325162Y3807460D01*
X4326686Y3804107D01*
X4334459Y3791559D01*
X4343704Y3780028D01*
X4354322Y3769766D01*
X4366107Y3760876D01*
G37*
G36*
X4485640Y3753713D02*
G01*
X4492244Y3757015D01*
X4504537Y3765143D01*
X4515764Y3774744D01*
X4525670Y3785666D01*
X4534204Y3797706D01*
X4539437Y3807460D01*
X4485640Y3807460D01*
G37*
G36*
X3482340Y3753713D02*
G01*
X3488944Y3757015D01*
X3501237Y3765143D01*
X3512464Y3774744D01*
X3522370Y3785666D01*
X3530904Y3797706D01*
X3536137Y3807460D01*
X3482340Y3807460D01*
G37*
G36*
X1298600Y3851249D02*
G01*
X1353058Y3851249D01*
X1353058Y3879291D01*
X1352346Y3885590D01*
X1350416Y3891076D01*
X1347368Y3895953D01*
X1343253Y3900068D01*
X1338376Y3903116D01*
X1332890Y3905046D01*
X1326591Y3905758D01*
X1298600Y3905758D01*
G37*
G36*
X1161542Y3851249D02*
G01*
X1216050Y3851249D01*
X1216050Y3905758D01*
X1188008Y3905758D01*
X1181709Y3905046D01*
X1176223Y3903116D01*
X1171346Y3900068D01*
X1167231Y3895953D01*
X1164183Y3891076D01*
X1162253Y3885590D01*
X1161542Y3879291D01*
G37*
G36*
X3482340Y3914140D02*
G01*
X3536137Y3914140D01*
X3530904Y3923893D01*
X3522370Y3935933D01*
X3512464Y3946855D01*
X3501237Y3956456D01*
X3488944Y3964584D01*
X3482340Y3967886D01*
G37*
G36*
X4485640Y3914140D02*
G01*
X4539437Y3914140D01*
X4534204Y3923893D01*
X4525670Y3935933D01*
X4515764Y3946855D01*
X4504537Y3956456D01*
X4492244Y3964584D01*
X4485640Y3967886D01*
G37*
G36*
X3321862Y3914140D02*
G01*
X3375660Y3914140D01*
X3375660Y3968140D01*
X3362807Y3960723D01*
X3351022Y3951833D01*
X3340404Y3941572D01*
X3331159Y3930040D01*
X3323386Y3917492D01*
G37*
G36*
X4325162Y3914140D02*
G01*
X4378960Y3914140D01*
X4378960Y3968140D01*
X4366107Y3960723D01*
X4354322Y3951833D01*
X4343704Y3941572D01*
X4334459Y3930040D01*
X4326686Y3917492D01*
G37*
G36*
X1257300Y4044442D02*
G01*
X1270355Y4045356D01*
X1283106Y4047998D01*
X1295450Y4052366D01*
X1307033Y4058412D01*
X1317701Y4065930D01*
X1327251Y4074871D01*
X1335532Y4084980D01*
X1342288Y4096156D01*
X1347520Y4108145D01*
X1351026Y4120743D01*
X1352804Y4133646D01*
X1352804Y4146753D01*
X1351026Y4159656D01*
X1347520Y4172254D01*
X1342288Y4184243D01*
X1335532Y4195419D01*
X1327251Y4205528D01*
X1317701Y4214469D01*
X1307033Y4221988D01*
X1295450Y4228033D01*
X1283106Y4232402D01*
X1270355Y4235043D01*
X1257300Y4235958D01*
X1244244Y4235043D01*
X1231493Y4232402D01*
X1219149Y4228033D01*
X1207566Y4221988D01*
X1196898Y4214469D01*
X1187348Y4205528D01*
X1179068Y4195419D01*
X1172311Y4184243D01*
X1167079Y4172254D01*
X1163574Y4159656D01*
X1161796Y4146753D01*
X1161796Y4133646D01*
X1163574Y4120743D01*
X1167079Y4108145D01*
X1172311Y4096156D01*
X1179068Y4084980D01*
X1187348Y4074871D01*
X1196898Y4065930D01*
X1207566Y4058412D01*
X1219149Y4052366D01*
X1231493Y4047998D01*
X1244244Y4045356D01*
G37*
G36*
X1748891Y4460290D02*
G01*
X1763674Y4460748D01*
X1778254Y4463034D01*
X1792427Y4467098D01*
X1806041Y4472838D01*
X1818792Y4480204D01*
X1830578Y4489094D01*
X1841195Y4499356D01*
X1850440Y4510887D01*
X1858213Y4523435D01*
X1864360Y4536846D01*
X1868830Y4550867D01*
X1869592Y4554931D01*
X1871065Y4558538D01*
X1873757Y4561382D01*
X1877314Y4562957D01*
X1881225Y4563059D01*
X1884883Y4561687D01*
X1887778Y4559046D01*
X1889455Y4555540D01*
X1892350Y4543856D01*
X1897684Y4530090D01*
X1904695Y4517085D01*
X1913229Y4505045D01*
X1923135Y4494123D01*
X1934362Y4484522D01*
X1946656Y4476394D01*
X1959864Y4469841D01*
X1973783Y4464913D01*
X1988210Y4461764D01*
X2002891Y4460392D01*
X2017674Y4460849D01*
X2032254Y4463135D01*
X2046427Y4467148D01*
X2060041Y4472889D01*
X2072792Y4480306D01*
X2084578Y4489196D01*
X2095195Y4499457D01*
X2104440Y4510938D01*
X2112213Y4523486D01*
X2118360Y4536897D01*
X2122830Y4550968D01*
X2123592Y4554931D01*
X2125014Y4558588D01*
X2127758Y4561382D01*
X2131314Y4562957D01*
X2135225Y4563110D01*
X2138883Y4561738D01*
X2141778Y4559096D01*
X2143455Y4555540D01*
X2146350Y4543856D01*
X2151684Y4530090D01*
X2158695Y4517085D01*
X2167229Y4505045D01*
X2177135Y4494123D01*
X2188362Y4484522D01*
X2200656Y4476394D01*
X2213864Y4469841D01*
X2227783Y4464913D01*
X2242210Y4461764D01*
X2256891Y4460392D01*
X2271674Y4460849D01*
X2286254Y4463135D01*
X2300427Y4467148D01*
X2314041Y4472889D01*
X2326792Y4480306D01*
X2338578Y4489196D01*
X2349195Y4499457D01*
X2358440Y4510938D01*
X2366213Y4523486D01*
X2372360Y4536897D01*
X2376830Y4550968D01*
X2377592Y4554931D01*
X2379014Y4558588D01*
X2381758Y4561382D01*
X2385314Y4562957D01*
X2389225Y4563110D01*
X2392883Y4561738D01*
X2395778Y4559096D01*
X2397455Y4555540D01*
X2400350Y4543856D01*
X2405684Y4530090D01*
X2412695Y4517085D01*
X2421229Y4505045D01*
X2431135Y4494123D01*
X2442362Y4484522D01*
X2454656Y4476394D01*
X2467864Y4469841D01*
X2481783Y4464913D01*
X2496210Y4461764D01*
X2510891Y4460392D01*
X2525674Y4460849D01*
X2540254Y4463135D01*
X2554427Y4467148D01*
X2568041Y4472889D01*
X2580792Y4480306D01*
X2592578Y4489196D01*
X2603195Y4499457D01*
X2612440Y4510938D01*
X2620213Y4523486D01*
X2626360Y4536897D01*
X2630830Y4550968D01*
X2631592Y4554931D01*
X2633014Y4558588D01*
X2635758Y4561382D01*
X2639314Y4562957D01*
X2643225Y4563110D01*
X2646883Y4561738D01*
X2649778Y4559096D01*
X2651455Y4555540D01*
X2654350Y4543856D01*
X2659684Y4530090D01*
X2666695Y4517085D01*
X2675229Y4505045D01*
X2685135Y4494123D01*
X2696362Y4484522D01*
X2708656Y4476394D01*
X2721864Y4469841D01*
X2735783Y4464913D01*
X2750210Y4461764D01*
X2764891Y4460392D01*
X2779674Y4460849D01*
X2794254Y4463135D01*
X2808427Y4467148D01*
X2822041Y4472889D01*
X2834792Y4480306D01*
X2846578Y4489196D01*
X2857195Y4499457D01*
X2866440Y4510938D01*
X2874213Y4523486D01*
X2880360Y4536897D01*
X2884830Y4550968D01*
X2887573Y4565497D01*
X2888488Y4580178D01*
X2887573Y4594910D01*
X2884830Y4609439D01*
X2880360Y4623511D01*
X2874213Y4636922D01*
X2866440Y4649470D01*
X2857195Y4660950D01*
X2846578Y4671212D01*
X2834792Y4680102D01*
X2822041Y4687519D01*
X2808427Y4693259D01*
X2794254Y4697272D01*
X2779674Y4699558D01*
X2764891Y4700016D01*
X2750210Y4698644D01*
X2735783Y4695494D01*
X2721864Y4690567D01*
X2708656Y4684014D01*
X2696362Y4675886D01*
X2685135Y4666234D01*
X2675229Y4655362D01*
X2666695Y4643323D01*
X2659684Y4630318D01*
X2654350Y4616551D01*
X2651455Y4604867D01*
X2649778Y4601311D01*
X2646883Y4598670D01*
X2643225Y4597298D01*
X2639314Y4597450D01*
X2635758Y4599025D01*
X2633014Y4601819D01*
X2631592Y4605477D01*
X2630830Y4609439D01*
X2626360Y4623511D01*
X2620213Y4636922D01*
X2612440Y4649470D01*
X2603195Y4660950D01*
X2592578Y4671212D01*
X2580792Y4680102D01*
X2568041Y4687519D01*
X2554427Y4693259D01*
X2540254Y4697272D01*
X2525674Y4699558D01*
X2510891Y4700016D01*
X2496210Y4698644D01*
X2481783Y4695494D01*
X2467864Y4690567D01*
X2454656Y4684014D01*
X2442362Y4675886D01*
X2431135Y4666234D01*
X2421229Y4655362D01*
X2412695Y4643323D01*
X2405684Y4630318D01*
X2400350Y4616551D01*
X2397455Y4604867D01*
X2395778Y4601311D01*
X2392883Y4598670D01*
X2389225Y4597298D01*
X2385314Y4597450D01*
X2381758Y4599025D01*
X2379014Y4601819D01*
X2377592Y4605477D01*
X2376830Y4609439D01*
X2372360Y4623511D01*
X2366213Y4636922D01*
X2358440Y4649470D01*
X2349195Y4660950D01*
X2338578Y4671212D01*
X2326792Y4680102D01*
X2314041Y4687519D01*
X2300427Y4693259D01*
X2286254Y4697272D01*
X2271674Y4699558D01*
X2256891Y4700016D01*
X2242210Y4698644D01*
X2227783Y4695494D01*
X2213864Y4690567D01*
X2200656Y4684014D01*
X2188362Y4675886D01*
X2177135Y4666234D01*
X2167229Y4655362D01*
X2158695Y4643323D01*
X2151684Y4630318D01*
X2146350Y4616551D01*
X2143455Y4604867D01*
X2141778Y4601311D01*
X2138883Y4598670D01*
X2135225Y4597298D01*
X2131314Y4597450D01*
X2127758Y4599025D01*
X2125014Y4601819D01*
X2123592Y4605477D01*
X2122830Y4609439D01*
X2118360Y4623511D01*
X2112213Y4636922D01*
X2104440Y4649470D01*
X2095195Y4660950D01*
X2084578Y4671212D01*
X2072792Y4680102D01*
X2060041Y4687519D01*
X2046427Y4693259D01*
X2032254Y4697272D01*
X2017674Y4699558D01*
X2002891Y4700016D01*
X1988210Y4698644D01*
X1973783Y4695494D01*
X1959864Y4690567D01*
X1946656Y4684014D01*
X1934362Y4675886D01*
X1923135Y4666234D01*
X1913229Y4655362D01*
X1904695Y4643323D01*
X1897684Y4630318D01*
X1892350Y4616551D01*
X1889404Y4604816D01*
X1887778Y4601260D01*
X1884883Y4598619D01*
X1881225Y4597247D01*
X1877314Y4597400D01*
X1873757Y4598974D01*
X1871014Y4601819D01*
X1869592Y4605426D01*
X1868830Y4609388D01*
X1864360Y4623409D01*
X1858213Y4636820D01*
X1850440Y4649368D01*
X1841195Y4660900D01*
X1830578Y4671161D01*
X1818792Y4680051D01*
X1806041Y4687417D01*
X1792427Y4693158D01*
X1778254Y4697222D01*
X1763674Y4699508D01*
X1748891Y4699914D01*
X1734210Y4698593D01*
X1719783Y4695444D01*
X1705864Y4690516D01*
X1692656Y4683912D01*
X1680362Y4675784D01*
X1669135Y4666183D01*
X1659229Y4655261D01*
X1650695Y4643221D01*
X1643684Y4630216D01*
X1638350Y4616450D01*
X1635455Y4604816D01*
X1633778Y4601260D01*
X1630883Y4598619D01*
X1627225Y4597247D01*
X1623314Y4597400D01*
X1619758Y4598974D01*
X1617065Y4601768D01*
X1615592Y4605426D01*
X1614830Y4609439D01*
X1610360Y4623511D01*
X1604213Y4636922D01*
X1596440Y4649470D01*
X1587195Y4660950D01*
X1576578Y4671212D01*
X1564792Y4680102D01*
X1552041Y4687519D01*
X1538427Y4693259D01*
X1524254Y4697272D01*
X1509674Y4699558D01*
X1494891Y4700016D01*
X1480210Y4698644D01*
X1465783Y4695494D01*
X1451864Y4690567D01*
X1438656Y4684014D01*
X1426362Y4675886D01*
X1415135Y4666234D01*
X1405229Y4655362D01*
X1396695Y4643323D01*
X1389684Y4630318D01*
X1384350Y4616551D01*
X1381455Y4604867D01*
X1379778Y4601311D01*
X1376883Y4598670D01*
X1373225Y4597298D01*
X1369314Y4597450D01*
X1365758Y4599025D01*
X1363014Y4601819D01*
X1361592Y4605477D01*
X1360830Y4609439D01*
X1356360Y4623511D01*
X1350213Y4636922D01*
X1342440Y4649470D01*
X1333195Y4660950D01*
X1322578Y4671212D01*
X1310792Y4680102D01*
X1298041Y4687519D01*
X1284427Y4693259D01*
X1270254Y4697272D01*
X1255674Y4699558D01*
X1240891Y4700016D01*
X1226210Y4698644D01*
X1211783Y4695494D01*
X1197864Y4690567D01*
X1184656Y4684014D01*
X1172362Y4675886D01*
X1161135Y4666234D01*
X1151229Y4655362D01*
X1142695Y4643323D01*
X1135684Y4630318D01*
X1130350Y4616551D01*
X1126794Y4602226D01*
X1124966Y4587595D01*
X1124966Y4572812D01*
X1126794Y4558182D01*
X1130350Y4543856D01*
X1135684Y4530090D01*
X1142695Y4517085D01*
X1151229Y4505045D01*
X1161135Y4494123D01*
X1172362Y4484522D01*
X1184656Y4476394D01*
X1197864Y4469841D01*
X1211783Y4464913D01*
X1226210Y4461764D01*
X1240891Y4460392D01*
X1255674Y4460849D01*
X1270254Y4463135D01*
X1284427Y4467148D01*
X1298041Y4472889D01*
X1310792Y4480306D01*
X1322578Y4489196D01*
X1333195Y4499457D01*
X1342440Y4510938D01*
X1350213Y4523486D01*
X1356360Y4536897D01*
X1360830Y4550968D01*
X1361592Y4554931D01*
X1363014Y4558588D01*
X1365758Y4561382D01*
X1369314Y4562957D01*
X1373225Y4563110D01*
X1376883Y4561738D01*
X1379778Y4559096D01*
X1381455Y4555540D01*
X1384350Y4543856D01*
X1389684Y4530090D01*
X1396695Y4517085D01*
X1405229Y4505045D01*
X1415135Y4494123D01*
X1426362Y4484522D01*
X1438656Y4476394D01*
X1451864Y4469841D01*
X1465783Y4464913D01*
X1480210Y4461764D01*
X1494891Y4460392D01*
X1509674Y4460849D01*
X1524254Y4463135D01*
X1538427Y4467148D01*
X1552041Y4472889D01*
X1564792Y4480306D01*
X1576578Y4489196D01*
X1587195Y4499457D01*
X1596440Y4510938D01*
X1604213Y4523486D01*
X1610360Y4536897D01*
X1614830Y4550968D01*
X1615592Y4554880D01*
X1617014Y4558538D01*
X1619758Y4561332D01*
X1623314Y4562957D01*
X1627225Y4563059D01*
X1630883Y4561687D01*
X1633778Y4559046D01*
X1635404Y4555490D01*
X1638350Y4543806D01*
X1643684Y4530039D01*
X1650695Y4517034D01*
X1659229Y4504994D01*
X1669135Y4494072D01*
X1680362Y4484471D01*
X1692656Y4476343D01*
X1705864Y4469739D01*
X1719783Y4464812D01*
X1734210Y4461662D01*
G37*
G36*
X3733800Y4875022D02*
G01*
X3746398Y4875936D01*
X3758793Y4878578D01*
X3770680Y4882896D01*
X3781856Y4888839D01*
X3792067Y4896256D01*
X3801160Y4905044D01*
X3808933Y4915001D01*
X3815283Y4925974D01*
X3820007Y4937709D01*
X3823055Y4949952D01*
X3824376Y4962550D01*
X3823970Y4975199D01*
X3821785Y4987645D01*
X3817874Y4999634D01*
X3812286Y5011013D01*
X3805224Y5021529D01*
X3796792Y5030927D01*
X3787089Y5039055D01*
X3776370Y5045760D01*
X3764787Y5050891D01*
X3752646Y5054396D01*
X3740099Y5056124D01*
X3727500Y5056124D01*
X3714953Y5054396D01*
X3702812Y5050891D01*
X3691229Y5045760D01*
X3680510Y5039055D01*
X3670808Y5030927D01*
X3662375Y5021529D01*
X3655314Y5011013D01*
X3649726Y4999634D01*
X3645814Y4987645D01*
X3643629Y4975199D01*
X3643223Y4962550D01*
X3644544Y4949952D01*
X3647592Y4937709D01*
X3652316Y4925974D01*
X3658666Y4915001D01*
X3666439Y4905044D01*
X3675532Y4896256D01*
X3685743Y4888839D01*
X3696919Y4882896D01*
X3708806Y4878578D01*
X3721201Y4875936D01*
G37*
G36*
X4883150Y4991557D02*
G01*
X4885232Y4992522D01*
X4898390Y5000498D01*
X4910531Y5009997D01*
X4921402Y5020868D01*
X4930902Y5032959D01*
X4938877Y5046167D01*
X4939842Y5048250D01*
X4883150Y5048250D01*
G37*
G36*
X4768850Y4991557D02*
G01*
X4768850Y5048250D01*
X4712157Y5048250D01*
X4713122Y5046167D01*
X4721047Y5032959D01*
X4730546Y5020868D01*
X4741468Y5009997D01*
X4753559Y5000498D01*
X4766716Y4992522D01*
G37*
G36*
X3733800Y5129022D02*
G01*
X3746398Y5129936D01*
X3758793Y5132578D01*
X3770680Y5136896D01*
X3781856Y5142839D01*
X3792067Y5150256D01*
X3801160Y5159044D01*
X3808933Y5169001D01*
X3815283Y5179974D01*
X3820007Y5191709D01*
X3823055Y5203952D01*
X3824376Y5216550D01*
X3823970Y5229199D01*
X3821785Y5241645D01*
X3817874Y5253634D01*
X3812286Y5265013D01*
X3805224Y5275529D01*
X3796792Y5284927D01*
X3787089Y5293055D01*
X3776370Y5299760D01*
X3764787Y5304891D01*
X3752646Y5308396D01*
X3740099Y5310124D01*
X3727500Y5310124D01*
X3714953Y5308396D01*
X3702812Y5304891D01*
X3691229Y5299760D01*
X3680510Y5293055D01*
X3670808Y5284927D01*
X3662375Y5275529D01*
X3655314Y5265013D01*
X3649726Y5253634D01*
X3645814Y5241645D01*
X3643629Y5229199D01*
X3643223Y5216550D01*
X3644544Y5203952D01*
X3647592Y5191709D01*
X3652316Y5179974D01*
X3658666Y5169001D01*
X3666439Y5159044D01*
X3675532Y5150256D01*
X3685743Y5142839D01*
X3696919Y5136896D01*
X3708806Y5132578D01*
X3721201Y5129936D01*
G37*
G36*
X4883150Y5162550D02*
G01*
X4939842Y5162550D01*
X4938877Y5164632D01*
X4930902Y5177840D01*
X4921402Y5189931D01*
X4910531Y5200802D01*
X4898390Y5210302D01*
X4885232Y5218277D01*
X4883150Y5219242D01*
G37*
G36*
X4712157Y5162550D02*
G01*
X4768850Y5162550D01*
X4768850Y5219242D01*
X4766716Y5218277D01*
X4753559Y5210302D01*
X4741468Y5200802D01*
X4730546Y5189931D01*
X4721047Y5177840D01*
X4713122Y5164632D01*
G37*
G36*
X4724958Y5346192D02*
G01*
X4927041Y5346192D01*
X4933340Y5346903D01*
X4938826Y5348833D01*
X4943703Y5351881D01*
X4947818Y5355996D01*
X4950917Y5360873D01*
X4952796Y5366359D01*
X4953508Y5372658D01*
X4953508Y5574741D01*
X4952796Y5581040D01*
X4950917Y5586526D01*
X4947818Y5591403D01*
X4943703Y5595518D01*
X4938826Y5598566D01*
X4933340Y5600496D01*
X4927041Y5601208D01*
X4724958Y5601208D01*
X4718659Y5600496D01*
X4713224Y5598566D01*
X4708296Y5595518D01*
X4704232Y5591403D01*
X4701133Y5586526D01*
X4699203Y5581040D01*
X4698492Y5574741D01*
X4698492Y5372658D01*
X4699203Y5366359D01*
X4701133Y5360873D01*
X4704232Y5355996D01*
X4708296Y5351881D01*
X4713224Y5348833D01*
X4718659Y5346903D01*
G37*
G36*
X3695090Y5391861D02*
G01*
X3695090Y5434939D01*
X3651910Y5434939D01*
X3658666Y5423001D01*
X3666439Y5413044D01*
X3675532Y5404256D01*
X3685743Y5396839D01*
G37*
G36*
X3772509Y5391861D02*
G01*
X3781856Y5396839D01*
X3792067Y5404256D01*
X3801160Y5413044D01*
X3808933Y5423001D01*
X3815689Y5434939D01*
X3772509Y5434939D01*
G37*
G36*
X3652062Y5512409D02*
G01*
X3695090Y5512409D01*
X3695090Y5555437D01*
X3691229Y5553760D01*
X3680510Y5547055D01*
X3670808Y5538927D01*
X3662375Y5529529D01*
X3655314Y5519013D01*
G37*
G36*
X3772509Y5512409D02*
G01*
X3815537Y5512409D01*
X3812286Y5519013D01*
X3805224Y5529529D01*
X3796792Y5538927D01*
X3787089Y5547055D01*
X3776370Y5553760D01*
X3772509Y5555437D01*
G37*
G36*
X1240891Y6120384D02*
G01*
X1255674Y6120841D01*
X1270254Y6123127D01*
X1284427Y6127140D01*
X1298041Y6132880D01*
X1310792Y6140297D01*
X1322578Y6149187D01*
X1333195Y6159449D01*
X1342440Y6170930D01*
X1350213Y6183477D01*
X1356360Y6196888D01*
X1360830Y6210960D01*
X1363573Y6225489D01*
X1364488Y6240170D01*
X1363573Y6254902D01*
X1360830Y6269431D01*
X1356360Y6283502D01*
X1350213Y6296914D01*
X1342440Y6309461D01*
X1333195Y6320942D01*
X1322578Y6331204D01*
X1310792Y6340094D01*
X1298041Y6347510D01*
X1284427Y6353251D01*
X1270254Y6357264D01*
X1255674Y6359550D01*
X1240891Y6360007D01*
X1226210Y6358636D01*
X1211783Y6355486D01*
X1197864Y6350558D01*
X1184656Y6344005D01*
X1172362Y6335877D01*
X1161135Y6326225D01*
X1151229Y6315354D01*
X1142695Y6303314D01*
X1135684Y6290310D01*
X1130350Y6276543D01*
X1126794Y6262217D01*
X1124966Y6247587D01*
X1124966Y6232804D01*
X1126794Y6218174D01*
X1130350Y6203848D01*
X1135684Y6190081D01*
X1142695Y6177076D01*
X1151229Y6165037D01*
X1161135Y6154115D01*
X1172362Y6144514D01*
X1184656Y6136386D01*
X1197864Y6129832D01*
X1211783Y6124905D01*
X1226210Y6121755D01*
G37*
G36*
X1551940Y6132880D02*
G01*
X1564792Y6140297D01*
X1576578Y6149187D01*
X1587195Y6159449D01*
X1596440Y6170930D01*
X1604213Y6183477D01*
X1605737Y6186830D01*
X1551940Y6186830D01*
G37*
G36*
X1445260Y6133084D02*
G01*
X1445260Y6186830D01*
X1391462Y6186830D01*
X1396695Y6177076D01*
X1405229Y6165037D01*
X1415135Y6154115D01*
X1426362Y6144514D01*
X1438656Y6136386D01*
G37*
G36*
X4511040Y6229959D02*
G01*
X4523892Y6237376D01*
X4535678Y6246266D01*
X4546295Y6256528D01*
X4555540Y6268059D01*
X4563313Y6280607D01*
X4564837Y6283960D01*
X4511040Y6283960D01*
G37*
G36*
X4404360Y6230213D02*
G01*
X4404360Y6283960D01*
X4350562Y6283960D01*
X4355795Y6274206D01*
X4364329Y6262166D01*
X4374235Y6251244D01*
X4385462Y6241643D01*
X4397756Y6233515D01*
G37*
G36*
X1391462Y6293510D02*
G01*
X1445260Y6293510D01*
X1445260Y6347307D01*
X1438656Y6344005D01*
X1426362Y6335877D01*
X1415135Y6326225D01*
X1405229Y6315354D01*
X1396695Y6303314D01*
G37*
G36*
X1551940Y6293510D02*
G01*
X1605737Y6293510D01*
X1604213Y6296914D01*
X1596440Y6309461D01*
X1587195Y6320942D01*
X1576578Y6331204D01*
X1564792Y6340094D01*
X1551940Y6347510D01*
G37*
G36*
X4350562Y6390640D02*
G01*
X4404360Y6390640D01*
X4404360Y6444386D01*
X4397756Y6441084D01*
X4385462Y6432956D01*
X4374235Y6423355D01*
X4364329Y6412433D01*
X4355795Y6400393D01*
G37*
G36*
X4511040Y6390640D02*
G01*
X4564837Y6390640D01*
X4563313Y6393992D01*
X4555540Y6406540D01*
X4546295Y6418072D01*
X4535678Y6428333D01*
X4523892Y6437223D01*
X4511040Y6444640D01*
G37*

%LPD*%
D10*
X3340100Y4711700D02*
G01*
X3187700Y4559300D01*
X3187700Y4318000D01*
X3111500Y4241800D01*
X1739900Y4241800D01*
X1651000Y4000500D01*
X1651000Y3860800D01*
X1752600Y6240195D02*
G01*
X1752600Y5905500D01*
X2946400Y4711700D01*
X3733800Y4711700D01*
X3733800Y4711700D02*
G01*
X3759200Y4737100D01*
X4825987Y4737100D01*
D11*
G01*
X4432300Y3860800D03*
G01*
X3670300Y3860800D03*
D12*
G01*
X3733800Y4711700D03*
D13*
G01*
X3733800Y4965700D03*
G01*
X3733800Y5219700D03*
G01*
X3733800Y5473700D03*
D14*
G01*
X1257300Y3810000D03*
D15*
G01*
X1257300Y4140200D03*
D11*
G01*
X3429000Y3860800D03*
G01*
X2667000Y3860800D03*
G01*
X3695700Y6337300D03*
G01*
X4457700Y6337300D03*
G01*
X1651000Y3860800D03*
G01*
X2413000Y3860800D03*
D16*
G01*
X4826012Y5473700D03*
D17*
G01*
X4825987Y5105400D03*
G01*
X4825987Y4737100D03*
D18*
G01*
X762000Y6350000D03*
G01*
X4826000Y3810000D03*
G01*
X4826000Y6337300D03*
G01*
X762000Y3810000D03*
D11*
G01*
X1498600Y4580204D03*
G01*
X1752600Y4580128D03*
G01*
X1244600Y4580204D03*
G01*
X2768600Y4580204D03*
G01*
X2514600Y4580204D03*
G01*
X2260600Y4580204D03*
G01*
X2006600Y4580204D03*
G01*
X1244600Y6240195D03*
G01*
X1498600Y6240195D03*
G01*
X1752600Y6240195D03*
G01*
X2006600Y6240195D03*
G01*
X2260600Y6240195D03*
G01*
X2514600Y6240195D03*
G01*
X2768600Y6240195D03*
M02*
